<svg xmlns="http://www.w3.org/2000/svg" style="display:none">
  <!-- Riktning 2, Ritningen. 16 ikoner, 24 x 24 med 2 px marginal, linje 1,5, raka ändar,
       skarpa hörn, geometrin snappad till helpixel. Pelarikonerna har ett litet
       ritningsdrag (markskraffering, vattenlinje, libell).
       stroke = currentColor, sätts till token ritblaeck #1c4a80 via CSS. -->

  <symbol id="ikon-fukt" viewBox="0 0 24 24" fill="none" stroke="currentColor" stroke-width="1.5" stroke-linecap="butt" stroke-linejoin="miter">
    <path d="M12,3 L6.5,11.5 A5.5,5.5 0 1 0 17.5,11.5 Z"/>
    <path d="M8,15 H16"/>
  </symbol>

  <symbol id="ikon-altan" viewBox="0 0 24 24" fill="none" stroke="currentColor" stroke-width="1.5" stroke-linecap="butt" stroke-linejoin="miter">
    <path d="M2,10 H22 M2,14 H22 M2,18 H22"/>
    <path d="M6,18 V22 M18,18 V22"/>
    <path d="M6,10 V4 M18,10 V4 M6,6 H18"/>
  </symbol>

  <symbol id="ikon-tak" viewBox="0 0 24 24" fill="none" stroke="currentColor" stroke-width="1.5" stroke-linecap="butt" stroke-linejoin="miter">
    <path d="M2,13 L12,3 L22,13"/>
    <path d="M5,10 V21 H19 V10"/>
    <path d="M16,7 V4 H19 V10"/>
  </symbol>

  <symbol id="ikon-grund" viewBox="0 0 24 24" fill="none" stroke="currentColor" stroke-width="1.5" stroke-linecap="butt" stroke-linejoin="miter">
    <path d="M1,8 H23"/>
    <path d="M8,8 V13 H4 V19 H20 V13 H16 V8"/>
    <path d="M1,12 L3,14 M1,16 L3,18 M21,12 L23,14 M21,16 L23,18"/>
  </symbol>

  <symbol id="ikon-isolering" viewBox="0 0 24 24" fill="none" stroke="currentColor" stroke-width="1.5" stroke-linecap="butt" stroke-linejoin="miter">
    <path d="M4,2 V22 M20,2 V22"/>
    <path d="M7,4 L17,7 L7,10 L17,13 L7,16 L17,19"/>
  </symbol>

  <symbol id="ikon-verktyg" viewBox="0 0 24 24" fill="none" stroke="currentColor" stroke-width="1.5" stroke-linecap="butt" stroke-linejoin="miter">
    <path d="M2,8 H22 V16 H2 Z"/>
    <path d="M9,8 V16 M15,8 V16"/>
    <path d="M10.5,10 V14 M13.5,10 V14"/>
    <circle cx="12" cy="12" r="1.25"/>
  </symbol>

  <symbol id="ikon-el" viewBox="0 0 24 24" fill="none" stroke="currentColor" stroke-width="1.5" stroke-linecap="butt" stroke-linejoin="miter">
    <path d="M13,2 L5,13 H11 L10,22 L19,10 H13 Z"/>
  </symbol>

  <symbol id="ikon-kalkylator" viewBox="0 0 24 24" fill="none" stroke="currentColor" stroke-width="1.5" stroke-linecap="butt" stroke-linejoin="miter">
    <path d="M5,2 H19 V22 H5 Z"/>
    <path d="M8,5 H16 V9 H8 Z"/>
    <path d="M8,12 H10 V14 H8 Z M11,12 H13 V14 H11 Z M14,12 H16 V14 H14 Z M8,16 H10 V18 H8 Z M11,16 H13 V18 H11 Z M14,16 H16 V18 H14 Z"/>
  </symbol>

  <symbol id="ikon-meny" viewBox="0 0 24 24" fill="none" stroke="currentColor" stroke-width="1.5" stroke-linecap="butt" stroke-linejoin="miter">
    <path d="M3,6 H21 M3,12 H21 M3,18 H21"/>
  </symbol>

  <symbol id="ikon-stang" viewBox="0 0 24 24" fill="none" stroke="currentColor" stroke-width="1.5" stroke-linecap="butt" stroke-linejoin="miter">
    <path d="M5,5 L19,19 M19,5 L5,19"/>
  </symbol>

  <symbol id="ikon-sok" viewBox="0 0 24 24" fill="none" stroke="currentColor" stroke-width="1.5" stroke-linecap="butt" stroke-linejoin="miter">
    <circle cx="10.5" cy="10.5" r="7"/>
    <path d="M15.5,15.5 L22,22"/>
  </symbol>

  <symbol id="ikon-pil-hoger" viewBox="0 0 24 24" fill="none" stroke="currentColor" stroke-width="1.5" stroke-linecap="butt" stroke-linejoin="miter">
    <path d="M2,12 H21"/>
    <path d="M15,6 L21,12 L15,18"/>
  </symbol>

  <symbol id="ikon-extern-lank" viewBox="0 0 24 24" fill="none" stroke="currentColor" stroke-width="1.5" stroke-linecap="butt" stroke-linejoin="miter">
    <path d="M10,4 H4 V20 H20 V14"/>
    <path d="M13,4 H20 V11 M20,4 L11,13"/>
  </symbol>

  <symbol id="ikon-varning" viewBox="0 0 24 24" fill="none" stroke="currentColor" stroke-width="1.5" stroke-linecap="butt" stroke-linejoin="miter">
    <path d="M12,2 L23,21 H1 Z"/>
    <path d="M12,9 V15 M12,17.5 V19.5"/>
  </symbol>

  <symbol id="ikon-info" viewBox="0 0 24 24" fill="none" stroke="currentColor" stroke-width="1.5" stroke-linecap="butt" stroke-linejoin="miter">
    <circle cx="12" cy="12" r="9.5"/>
    <path d="M12,11 V17 M12,7 V9"/>
  </symbol>

  <symbol id="ikon-check" viewBox="0 0 24 24" fill="none" stroke="currentColor" stroke-width="1.5" stroke-linecap="butt" stroke-linejoin="miter">
    <path d="M3,12.5 L9,18.5 L21,6.5"/>
  </symbol>
</svg>
