<svg xmlns="http://www.w3.org/2000/svg" viewBox="0 0 600 360" width="600" height="360" role="img" aria-label="Råsponten på en kallvind sedd underifrån med mörka mögelbrädor och ljusa ränder, och två snitt: mögel på ytan och röta i träet.">
  <!-- Anteckningsboken, samma hand som hussvamp-syll.svg. Vänster: kallvindens takfall sett snett
       underifrån, råsponten i takfallets riktning, två takstolar rena. Bräda 3, 4 och 6 mörka av prickigt
       mögel nere vid takfoten, med ljusa ränder där ströläkten låg (SP Rapport 2006:43). Höger: två snitt
       genom en bräda, ytmögel överst och kubisk brunröta med en kniv under (TräGuiden). Pennan pekar på
       rötsnittet, enda pennsaken. Tumstock bakom 2 mm, enda markeringen (SBUF 13897). Inte skalenlig.
       Handskrift i Caveat 500, konverteras till banor vid bygget.
       Tokens: papper #f5efe3, linje #c9bca3, blyerts #2a2521, blyerts-2 #625a50, penna #ad3519, tumstock #e8b830 -->
  <defs>
    <pattern id="linjerat" width="48" height="24" patternUnits="userSpaceOnUse">
      <rect width="48" height="24" fill="#f5efe3"/>
      <path d="M0,23.5 H48" stroke="#c9bca3" stroke-width="0.75" fill="none"/>
    </pattern>
  </defs>
  <rect width="600" height="360" fill="url(#linjerat)"/>
  <path d="M40,0 V360" stroke="#ad3519" stroke-width="0.75" stroke-opacity="0.35" fill="none"/>

  <!-- Blyerts-2 1,25: isoleringen vid takfoten -->
  <path d="M72,304 l7,-7M138,304 l7,-7M160,304 l7,-7M182,304 l7,-7M204,304 l7,-7M226,304 l7,-7M248,304 l7,-7M270,304 l7,-7M292,304 l7,-7M336,304 l7,-7M358,304 l7,-7M61,326 l7,-7M127,326 l7,-7M149,326 l7,-7M171,326 l7,-7M193,326 l7,-7M215,326 l7,-7M237,326 l7,-7M259,326 l7,-7M281,326 l7,-7M347,326 l7,-7M369,326 l7,-7M116,348 l7,-7M138,348 l7,-7M160,348 l7,-7M182,348 l7,-7M204,348 l7,-7M226,348 l7,-7M248,348 l7,-7M270,348 l7,-7M292,348 l7,-7M358,348 l7,-7" fill="none" stroke="#625a50" stroke-width="1.25" stroke-linecap="round"/>

  <!-- Papperslapp bakom etiketten -->
  <rect x="118" y="312" width="184" height="36" fill="#f5efe3"/>

  <!-- Blyerts-2 1,5: rutans ram, hänvisningen till ränderna och måttbygeln för 2 mm -->
  <g fill="none" stroke="#625a50" stroke-width="1.5" stroke-linecap="round" stroke-linejoin="round">
    <path d="M384,22 Q486,20.5 588,22 M586,19 Q587.5,182 586,345 M588,342 Q486,343.5 382,342 M385,345 Q383.5,182 385,19"/>
    <path d="M186,312 Q191,282.2 192,252"/>
    <path d="M519,80 H527 M519,89 H527 M523,80 V89"/>
  </g>

  <!-- Blyerts-2 1,25: ådringen i takstolarna -->
  <path d="M157.4,60 Q146,94.4 139.5,130 M144.2,150 Q132.1,194.5 124.9,240 M124.1,205 Q110.2,251.9 101.1,300 M282.1,60 Q283.6,95.3 290,130 M302.1,150 Q306.6,195.4 316,240 M302.2,205 Q305.8,252.8 314.2,300" fill="none" stroke="#625a50" stroke-width="1.25" stroke-linecap="round"/>

  <!-- Blyerts-2 1,25: ådringen i den friska brädan -->
  <path d="M400,100 Q428,97 452,101 Q474,104 494,100 T510,101 M400,110 Q424,113 450,109 Q468,106 488,111 T510,110" fill="none" stroke="#625a50" stroke-width="1.25" stroke-linecap="round"/>

  <!-- Blyerts: takfallet, sponten, takstolarna, brädorna i snitt och kniven -->
  <g fill="none" stroke="#2a2521" stroke-width="2" stroke-linecap="round" stroke-linejoin="round">
    <path d="M132,40 Q224,41.5 316,40 M52,286 Q212,284 372,286 M136,37 Q97.9,163.6 56,289 M312,37 Q338,163.4 368,289"/>
    <path d="M155.6,41 Q125,163.5 90.7,285 M175.1,41 Q147.8,162.5 125.3,285 M194.7,41 Q178.8,163.2 160,285 M214.2,41 Q202.5,162.8 194.7,285 M233.8,41 Q234.1,163 229.3,285 M253.3,41 Q257.2,163.1 264,285 M272.9,41 Q287.8,162.8 298.7,285 M292.4,41 Q310.4,163.4 333.3,285"/>
    <path d="M164.9,26 Q126.7,178.5 84.6,330 M172.3,26 Q139.6,177.6 110.9,330 M162.9,26 Q168.6,27 174.3,26 M82.6,330 Q97.7,331 112.9,330 M277.1,26 Q294.9,177.8 308.8,330 M284.5,26 Q307.8,178.3 335.1,330 M275.1,26 Q280.8,27 286.5,26 M306.8,330 Q322,331 337.1,330"/>
    <path d="M394,78 Q454,76.5 516,78 M514,75 Q515,98 514,121 M394,118 Q454,119 516,118 M399,75 Q398,98 399,121"/>
    <path d="M395,204 Q485,202.5 520,204 M540,204 Q558,205 575,204 M572,201 Q573,232 572,263 M395,260 Q485,261.5 575,260 M399,201 Q398,232 399,263"/>
    <path d="M554,180 L573,135 Q576,127 569,125 Q562,123 559,130 L539,175 Z M539,175 L524,244 L554,180"/>
  </g>

  <!-- Blyerts 1,75: brunrötans sprickor i kuber -->
  <path d="M401,232 l11.9,0.8 l12.2,-1.9 l12.3,0.3 l11.4,0.5 l13.6,0.7 l11.9,1.8 l12.4,-1.9 l13.1,-0.3 l10.5,1.3 l9.2,1.5 l10.1,-0.5 l11.2,-1 l13.3,0.4 l10.7,1.2 l9.3,0.3 M416,206 l0.6,10.2 l1.2,10.1 l-0.3,8 l-0.4,9.6 l0.9,7.4 l-1.2,8 M436.4,206 l1.5,8.4 l1,10.3 l1.2,9.2 l-0.8,10.7 l2,7.2 l-1.7,9.9 M456.8,206 l1.1,10.7 l-1.2,8 l0.3,8.4 l1.3,8.4 l1.3,10.1 l0.3,8.7 M478.2,206 l-1.9,7.8 l0.3,7.5 l-1.1,9.5 l-0.8,7.4 l0.9,10.1 l1.5,7.3 M497.8,206 l0.4,9.3 l-1.3,10.8 l0.8,7.5 l0.2,7.9 l-0.6,7.9 l-0.7,8.5 M561.8,206 l0.1,7.4 l-1.6,8.6 l1.1,10.1 l-0.8,8 l0.5,8.3 l1.2,9.3" fill="none" stroke="#2a2521" stroke-width="1.75" stroke-linecap="round" stroke-linejoin="round"/>

  <!-- Blyerts: mögelprickar på brädorna vid takfoten -->
  <path d="M166.2,282.2h.1m4.4,.9h.1m2.2,.4h.1m4.6,.3h.1m2.5,-.6h.1m3.7,-.6h.1m-20.7,-3.3h.1m3.3,-.2h.1m3.7,-.1h.1m3.3,.7h.1m3.4,-.7h.1m3.4,1.6h.1m1.5,-2.1h.1m-14.9,-2.9h.1m3.9,0h.1m.9,1.8h.1m3.7,.1h.1m3.3,-1.1h.1m4,-1.4h.1m-15.1,-1.9h.1m2.8,-.4h.1m3,1.2h.1m2.8,-.8h.1m3.1,-1h.1m4,.5h.1m-18.9,-4.2h.1m.8,.3h.1m4.7,2.1h.1m2.3,-1.3h.1m3.6,-.1h.1m2.6,1.3h.1m3.2,-2.2h.1m-18.7,-1.3h.1m3,-1.2h.1m4,.6h.1m2.6,-.4h.1m3,1h.1m2.8,-1.7h.1m4.3,1.2h.1m-18.8,-4.8h.1m2,-.2h.1m4.6,1.8h.1m2.8,-.3h.1m3.6,-.1h.1m2.3,-1.2h.1m2.3,.3h.1m-17.8,-1.8h.1m2.8,-1.7h.1m1.5,.3h.1m3.5,-.6h.1m3.9,.5h.1m3.2,1.5h.1m-16.4,-4.5h.1m2.3,1.3h.1m4.2,.2h.1m3.8,-1.2h.1m2.2,1.1h.1m3.2,.1h.1m-12,-3.5h.1m2.2,-.6h.1m4,-.5h.1m2.6,-.3h.1m3.2,.9h.1m2.9,-1.3h.1m-16,-2.8h.1m4.1,.7h.1m3.4,-1.2h.1m3.9,.4h.1m2.9,1.6h.1m-12.2,-18h.1m7.2,-.5h.1m2.3,1.4h.1m3.9,-1.3h.1m2.9,.4h.1m2.6,.8h.1m-18.1,-3.1h.1m1.5,-1.1h.1m3.6,-.6h.1m3.1,1.3h.1m4.6,.5h.1m2.4,-.7h.1m4.3,.5h.1m-23.4,-5h.1m3.7,2.2h.1m2.7,-2.1h.1m3.1,1h.1m3.3,-.7h.1m3.9,2h.1m2.1,.1h.1m2.4,-2.1h.1m-19.5,-1.8h.1m5.5,.1h.1m1.7,-.7h.1m3.9,.1h.1m1.6,-1.2h.1m3.2,.5h.1m4.8,.5h.1m-22.1,-3.2h.1m1.2,-.4h.1m5.4,-.7h.1m.9,2.3h.1m4,-1h.1m4.8,.9h.1m2.1,-2h.1m3.4,1.9h.1m-18.6,-3.6h.1m2.4,.4h.1m3.6,-.6h.1m3.4,.5h.1m2.1,-.3h.1m2.3,-.8h.1m5.3,1.1h.1m-23.2,-3.6h.1m2.8,-1.4h.1m2.6,-.1h.1m4.5,1.5h.1m3,-1.8h.1m1.1,.6h.1m4.8,-.5h.1m1.8,.5h.1m-17.5,-2.8h.1m3.2,0h.1m2.9,.7h.1m1.4,-.4h.1m5.1,-.1h.1m3.3,.1h.1m3.3,-.5h.1m-23,-2h.1m2.7,-1.1h.1m2.6,.3h.1m2.6,-.2h.1m4.5,.6h.1m2.8,-1.7h.1m4.6,2.4h.1m2.1,0h.1m-21.5,-4.8h.1m2,.9h.1m4,-.6h.1m2.4,-.4h.1m2.8,.1h.1m2.6,-.4h.1m4,1.1h.1m3.1,-.5h.1m-19.4,-3h.1m2.2,-.4h.1m4.5,-1h.1m3,.9h.1m4.1,-.3h.1m3.5,.9h.1m2,-.9h.1m-22.2,-3h.1m1.7,1.2h.1m4.1,-.1h.1m4.2,-1.6h.1m2.9,1.8h.1m1.6,-.5h.1m3.4,-.4h.1m-14.8,-4.7h.1m2.5,1.5h.1m4.6,-.3h.1m3,-.8h.1m2,.2h.1m2.4,1.8h.1m-17.9,-4.1h.1m3.6,.3h.1m2.3,-1.1h.1m2.6,1.6h.1m4.9,-.1h.1m1.6,-.4h.1m3.6,-1.7h.1m-9,-1h.1m-3.6,-12.3h.1m-5.7,-.8h.1m2.7,-1.5h.1m4.9,.8h.1m1.9,-1.4h.1m3.1,-.4h.1m3.8,1.7h.1m2.9,-1.1h.1m-16.7,-2.5h.1m4.7,-.4h.1m2,.9h.1m4.7,-.1h.1m1.8,-1.3h.1m3.2,.5h.1m-15.9,-3.7h.1m4,1h.1m1.8,-1.4h.1m5.5,1.7h.1m3.3,.5h.1m2.5,-.8h.1m-19,-4.6h.1m1.9,.9h.1m3.1,-.9h.1m3.7,1.8h.1m4.4,.1h.1m1.1,-1.1h.1m4.5,0h.1m-20.2,-3.1h.1m2.3,.6h.1m3.9,-2h.1m3.1,1.8h.1m4.9,.3h.1m2.2,-.7h.1m2.1,.4h.1m-14.5,-2.8h.1m3.9,-1.5h.1m2.8,.8h.1m3.5,-.7h.1m1.4,.9h.1m3.9,-.5h.1m-19.7,-2.5h.1m3.1,-1.3h.1m2.4,-.3h.1m5,.3h.1m1.9,1.3h.1m3.5,.3h.1m3.5,0h.1m-18.6,-5.2h.1m2.1,-.1h.1m3.2,.5h.1m2.7,-.2h.1m4.3,1.4h.1m3.2,-1.3h.1m2.3,.8h.1m-18.4,-3h.1m3,-1.3h.1m3.6,1.6h.1m3.6,0h.1m3.1,-.7h.1m1.5,.4h.1m3.2,-.6h.1m-18.6,-2.8h.1m4.4,-.2h.1m3.1,.6h.1m1.3,-2.2h.1m3.4,2.3h.1m4.8,-2.2h.1m-15.9,-2.2h.1m1.6,.3h.1m4.9,-.4h.1m3.3,-.7h.1m2.3,1.6h.1m3.9,-2.3h.1m-13.7,-2.8h.1m4.1,-.2h.1m1.6,1h.1m5.1,.8h.1m-10.2,-3h.1m1.6,-.9h.1m5,.7h.1m-9.3,-5.4h.1m2.4,1.5h.1m2.8,-.7h.1m3.1,.4h.1m2.5,.5h.1m3.1,-1h.1m-14.6,-2.2h.1m3.8,-.9h.1m1.1,1.4h.1m2.1,-4h.1m3.7,-.5h.1m6,-1.2h.1m-17.2,-2.1h.1m4.3,-.5h.1m6.6,.4h.1m-6,-3.2h.1m7.8,164.5h.1m2.8,1.4h.1m2.6,-1.7h.1m3.7,-.4h.1m3.6,.8h.1m3.1,.1h.1m1.2,-.6h.1m3.1,.2h.1m5.2,.5h.1m-27.6,-2h.1m4.9,-.4h.1m1.4,.5h.1m4.2,.3h.1m1.7,-2h.1m4.3,-.3h.1m2.1,-.2h.1m5.2,2.5h.1m1.3,-1.3h.1m-22,-2.1h.1m4,-1.5h.1m3.7,1.3h.1m1.1,-1.5h.1m5.3,1.8h.1m2.2,-2.2h.1m1.9,1.5h.1m3.8,-.3h.1m-23.2,-2.8h.1m3.5,-.4h.1m3.4,.2h.1m4.3,-.2h.1m2.9,-1h.1m3.6,1h.1m3.4,.1h.1m1.1,.5h.1m-21.6,-5h.1m3.4,.4h.1m2.3,1.6h.1m2.7,-.2h.1m4,-1.9h.1m3,.3h.1m4,-.1h.1m1.9,-.3h.1m-26,-1.6h.1m4,.1h.1m1.9,0h.1m3.1,-1.7h.1m3.7,.5h.1m3.5,1.6h.1m3.8,-1h.1m3,.4h.1m2.2,.7h.1m-23.2,-5.7h.1m4.9,1.3h.1m2,-.2h.1m4.8,.3h.1m3.6,.3h.1m1.3,-1.2h.1m4,1.1h.1m2.8,.4h.1m-25.2,-3.2h.1m2.4,-1.3h.1m3.2,-1h.1m3.5,.2h.1m3.1,1.5h.1m3.3,-.3h.1m3.9,.9h.1m1.5,-.2h.1m3.2,.2h.1m-25,-3.1h.1m3.1,-1.2h.1m3.7,1.2h.1m1.3,-2.1h.1m4.5,1.7h.1m4,-1.3h.1m1.9,.3h.1m3,.7h.1m4.4,.2h.1m-26.3,-4.5h.1m1.3,.3h.1m4,.2h.1m4,.9h.1m3.1,-.2h.1m3.2,-1.2h.1m3.8,-.1h.1m1.8,1.6h.1m-22.4,-3.2h.1m3.7,-.9h.1m3.3,-1.1h.1m3.4,1.6h.1m2.5,.4h.1m2.6,-.7h.1m2.4,-1.2h.1m3.3,.8h.1m3.4,.1h.1m-23.3,-15.7h.1m12.4,-.8h.1m3.1,-1.2h.1m1.7,-.1h.1m4.7,1.7h.1m-23.1,-4.8h.1m1.8,1.7h.1m5,-1h.1m3.7,.1h.1m1,-1h.1m4.8,1.7h.1m3.3,-1.7h.1m2.1,.3h.1m-22.9,-3.3h.1m3.3,1.7h.1m3.6,-2.1h.1m2.6,1.1h.1m3.5,.8h.1m3.7,-.3h.1m2.9,.7h.1m3.3,-1.5h.1m-21.9,-2.8h.1m1,-.5h.1m4.7,-.5h.1m2.5,1.5h.1m4.4,.9h.1m.9,0h.1m4.1,-2.4h.1m4,.3h.1m-20.6,-1.8h.1m4.9,-.9h.1m1.3,-.4h.1m4.3,1h.1m1.9,-.7h.1m5.5,.8h.1m1.4,.1h.1m-22.2,-4h.1m3.2,-1.1h.1m3.9,1.1h.1m3,1.3h.1m2.1,0h.1m3.9,-2.1h.1m3,-.3h.1m3.8,0h.1m-23.8,-2.7h.1m2.4,1.6h.1m5.1,-1.4h.1m1.7,1.6h.1m5,-1.6h.1m2.7,-.3h.1m2,.2h.1m3.7,-.8h.1m-23.4,-1.3h.1m2.4,.1h.1m4.9,-.3h.1m2.9,-1h.1m2,-.1h.1m3.2,-.3h.1m4.9,1.4h.1m3,-1.7h.1m-22.5,-2.5h.1m2.2,.1h.1m4.3,.9h.1m1.9,-.8h.1m3.3,-.5h.1m3.2,-.5h.1m4.3,.8h.1m3,1.1h.1m-23.6,-3.1h.1m3.9,-1.5h.1m2.6,.6h.1m3.1,-.8h.1m4.2,.1h.1m1.5,1.1h.1m3.9,.1h.1m-19.1,-4.9h.1m3.5,.3h.1m1.2,-.3h.1m3.7,2h.1m2.7,-1.9h.1m4.8,-.1h.1m2.6,.9h.1m2.1,.4h.1m-20.7,-2.9h.1m1.1,-1.1h.1m5.2,-.1h.1m3.5,.9h.1m3,.5h.1m1.9,-.1h.1m4,-.7h.1m-15.9,-3.5h.1m1.4,.1h.1m4.1,.9h.1m2,-.7h.1m3.2,-.7h.1m3.2,.4h.1m-18.1,-3.8h.1m3.7,.7h.1m2.7,-1.2h.1m3,1.5h.1m2.6,.6h.1m3,-.9h.1m4.5,-.8h.1m-6,-13h.1m-12.9,-2.4h.1m5.7,-.1h.1m4,-.8h.1m2.4,-.6h.1m4,1.5h.1m3.2,-1.8h.1m-19.8,-2.8h.1m3.4,1.6h.1m4,-1.2h.1m2.2,1.5h.1m2.3,-2.2h.1m4.8,.9h.1m2.9,.8h.1m-19.3,-3.8h.1m1,-1.2h.1m4.6,.9h.1m2,.4h.1m5.5,-.3h.1m.9,1.1h.1m4.1,0h.1m-18.1,-5.2h.1m2.4,.6h.1m3.8,1.1h.1m1,-1.6h.1m3.8,.7h.1m3.2,-.8h.1m3.5,.3h.1m-19.5,-2h.1m3.3,-1.7h.1m2.4,1.4h.1m3.7,-.5h.1m3.2,.7h.1m4.6,-.9h.1m2,1.1h.1m-19.5,-4.2h.1m1.9,-.1h.1m4.9,1.2h.1m2.8,-1h.1m2.6,-.3h.1m3.4,-.9h.1m4.6,2.5h.1m-21.1,-4.5h.1m4.4,-.1h.1m3.7,.4h.1m.6,.8h.1m4.6,-1.5h.1m4,.8h.1m1.9,.8h.1m-16.4,-4.9h.1m3.9,1h.1m4,-.4h.1m1.6,.8h.1m3.1,-1.5h.1m2.9,1h.1m-18.3,-2.9h.1m2.8,-1.7h.1m2.8,-.2h.1m3.2,1.7h.1m4.7,-1.3h.1m2.3,-.5h.1m1.9,2.4h.1m-14.9,-3.4h.1m2.3,-.7h.1m4.9,-.5h.1m1,1.1h.1m4.9,-1.4h.1m3.1,.6h.1m-19.9,-2.6h.1m2.5,-.7h.1m3.2,-.1h.1m3.4,-.8h.1m3.1,-.1h.1m3.1,1.9h.1m-12.9,-3.1h.1m3.2,-1.4h.1m2.7,1.2h.1m4.2,0h.1m2,-.2h.1m-13.1,-4h.1m4.2,-.4h.1m4,.2h.1m2.3,1.3h.1m4.3,-.1h.1m-16.3,-4.4h.1m3.5,1.2h.1m3.4,-2.5h.1m3.1,.7h.1m2.6,-.1h.1m1.6,1.2h.1m-12.8,-4.8h.1m4.5,1.2h.1m1.8,.7h.1m3.7,-.4h.1m3,-.3h.1m-14.9,-4.7h.1m2.1,1.7h.1m4.3,-.7h.1m1.2,-.4h.1m3.5,-.2h.1m3.4,1.1h.1m-15.2,-3h.1m3.3,-1.5h.1m2.6,1.5h.1m2.2,.5h.1m5.5,-2.2h.1m2.6,1h.1m-16.5,-2.9h.1m3.1,.3h.1m5.9,-.1h.1m4.1,.6h.1m1.8,-.6h.1m-14.6,-4.8h.1m12.1,1.1h.1m3.6,-1.3h.1m-7.9,-2.6h.1m4.5,.7h.1m2.3,-.6h.1m-5.1,-1.7h.1m6.3,-.5h.1m-3.5,-4.4h.1m-6.1,-3.4h.1m2.4,1.4h.1m3.2,-4.9h.1m41.5,185h.1m2.6,1.5h.1m2.6,-.4h.1m4.7,-1.5h.1m2.3,-.4h.1m4.2,1.6h.1m2.5,.7h.1m3.2,-.6h.1m3.5,-.1h.1m-26,-3.5h.1m2.7,.1h.1m4,-.3h.1m3.3,-1h.1m1.6,2h.1m3.1,-.3h.1m3.3,-.7h.1m2.6,.4h.1m4.7,-.4h.1m-26.4,-4.8h.1m1.5,2.3h.1m4.6,-2.3h.1m2.6,1.8h.1m3.1,.6h.1m4.5,-1.8h.1m1,1.3h.1m4.8,-.6h.1m2,.3h.1m-23.5,-4h.1m4.6,1.1h.1m2.8,-.6h.1m2.6,-1.4h.1m3.4,.7h.1m3.6,-.2h.1m1.9,.8h.1m3.4,-.7h.1m-22.3,-3.6h.1m3.9,-.1h.1m2.8,2.1h.1m2.9,-.6h.1m4.2,-.7h.1m1.4,-.9h.1m3.2,.2h.1m3.2,2h.1m-25,-3.6h.1m3.2,-.6h.1m2.6,-.4h.1m3.7,-.5h.1m2.1,1.2h.1m4.4,-.4h.1m2.8,.9h.1m3.2,-1.8h.1m2.9,.8h.1m-25.6,-2.7h.1m2.9,-.4h.1m3,-1.3h.1m2.1,1.5h.1m4.6,-.1h.1m1.8,.6h.1m4.9,.2h.1m1,-2.2h.1m5.2,.7h.1m-26.7,-2.7h.1m2.6,-1.1h.1m2.8,.6h.1m2.1,1.5h.1m5.4,-1.3h.1m2.8,-.4h.1m1.8,0h.1m3,.7h.1m4.4,-.4h.1m-26.5,-3.3h.1m3.2,-.3h.1m3.6,-.2h.1m1.7,-.6h.1m4.4,2.3h.1m2.9,-2.3h.1m3.6,.6h.1m2.3,1.1h.1m3.3,-.4h.1m-23.5,-3.4h.1m3.3,0h.1m4.3,.9h.1m2.4,-2.1h.1m3.4,1.8h.1m2.4,-.1h.1m4.2,-1.6h.1m3.2,1.6h.1m-27.1,-3.3h.1m2.7,-1.4h.1m3.5,1.4h.1m3.8,.2h.1m3.8,-.6h.1m1.4,1.1h.1m4.5,-1.7h.1m3.1,-.9h.1m2.3,1h.1m-23.8,-2.3h.1m-3.2,-14.4h.1m4.8,.9h.1m4.2,.7h.1m3.9,-1.4h.1m3.5,0h.1m5.3,0h.1m-21.9,-2.3h.1m2.9,-1.2h.1m3.8,.9h.1m2.9,.2h.1m1.9,-1.5h.1m5.5,1.8h.1m2.5,-1.8h.1m1.7,.3h.1m-22.3,-2.7h.1m1.9,.3h.1m4.8,.5h.1m2.5,-.7h.1m2.9,-.1h.1m4.9,-.4h.1m2.3,1.3h.1m2.9,.2h.1m-23.3,-5.1h.1m4.2,1.7h.1m2.5,-1.6h.1m1.9,0h.1m4.9,.7h.1m1.7,-.9h.1m3.8,1.7h.1m2.5,-.7h.1m-19.3,-3.6h.1m3.9,1.5h.1m4,-1h.1m1.5,-.6h.1m4,-.3h.1m2.3,1h.1m3.2,0h.1m-22.8,-2.5h.1m2.7,-1.4h.1m4.6,-.1h.1m2.8,1.5h.1m2.4,-1.8h.1m4.6,.7h.1m2.7,.8h.1m1.6,.5h.1m-21.8,-3.8h.1m3.3,-1.6h.1m1.9,1h.1m2.9,.5h.1m5.3,0h.1m2.7,-.4h.1m2.5,-.8h.1m3,.8h.1m-22.8,-3.1h.1m4,.1h.1m3.1,.7h.1m2.3,-1.2h.1m2.8,-1.3h.1m4.5,2.2h.1m3.4,-1.2h.1m.8,0h.1m-22.2,-4.1h.1m2.2,.6h.1m5.2,.4h.1m2.3,-.6h.1m2.3,1.2h.1m5.2,-1h.1m3.1,1.5h.1m2.6,.2h.1m-21.4,-4.7h.1m5.1,-.7h.1m2.5,.5h.1m3.1,1h.1m3.2,-1.2h.1m2.5,1.9h.1m4.1,-1.4h.1m-20.5,-3.1h.1m2.2,-1.2h.1m4.1,1.3h.1m4.3,.4h.1m3.4,-.1h.1m1.3,-.2h.1m3.6,-.5h.1m-20.3,-3.6h.1m3.4,1.3h.1m3.2,-.6h.1m3.2,1h.1m4.8,-1.1h.1m2.1,-.4h.1m2.3,-.5h.1m-21.4,-2.5h.1m1,-.4h.1m4,-.5h.1m3.8,-.2h.1m3.9,1.8h.1m3.4,.1h.1m3.1,.1h.1m-16.8,-3.7h.1m1.2,-.5h.1m4.4,-.4h.1m2,1.6h.1m4.6,-1.1h.1m4,-.7h.1m-21,-13.3h.1m2.5,-2.7h.1m2.2,0h.1m5.1,1.3h.1m1.8,-.6h.1m2.8,-.1h.1m4.4,-1.6h.1m-19.2,-1.3h.1m1.8,.1h.1m3.8,-.9h.1m3.7,.3h.1m1.3,.5h.1m4.5,0h.1m3.2,-1.3h.1m-19.5,-3h.1m2.2,1.4h.1m2.8,-.5h.1m3.4,-1.5h.1m3.4,.1h.1m3.8,-.2h.1m3.6,-.1h.1m-19.5,-1.8h.1m1.7,-.4h.1m4.4,-.2h.1m2.8,.8h.1m1.8,-1.7h.1m4.1,2.1h.1m4.3,-.9h.1m-20.6,-2.5h.1m3,-1h.1m3.9,-.6h.1m1.9,1.5h.1m3.1,.2h.1m3.4,-2.4h.1m2.3,1.7h.1m-16,-4.5h.1m3.4,.3h.1m2.1,.6h.1m3.7,.5h.1m4.7,-1.4h.1m2,1.2h.1m-15.9,-5h.1m2,.1h.1m4.3,1.1h.1m3.7,.2h.1m2.6,-1.2h.1m2.4,1.5h.1m-16.6,-3.7h.1m2.4,-.5h.1m4.9,1.3h.1m1.6,-.3h.1m4.9,-.8h.1m1.6,1h.1m-17.8,-4.8h.1m2.3,0h.1m2,.7h.1m3.7,-.2h.1m2.4,.3h.1m3.7,.5h.1m3.6,-1.6h.1m-17.4,-2.9h.1m3.4,1.5h.1m2.9,.1h.1m4.2,-1.5h.1m2.5,.4h.1m4.7,1.3h.1m-21,-3.7h.1m3.5,-.8h.1m8.6,-.5h.1m5.5,.1h.1m-17.8,-3.2h.1m2,.6h.1m4.3,-1.1h.1m10.6,0h.1m-15.1,-1.6h.1m5.1,0h.1m5.1,-3.1h.1m2.9,-1.3h.1m-15.5,-4.2h.1m6.8,.5h.1m9.5,1.1h.1m-3.5,-2.7h.1m1.8,-.9h.1" fill="none" stroke="#2a2521" stroke-width="2.6" stroke-linecap="round"/>

  <!-- Blyerts-2: mögel bara på den friska brädans yta -->
  <path d="M401,82h.1m5,2h.1m4,-2h.1m5,1h.1m5,-1h.1m4,2h.1m5,-1h.1m5,-1h.1m4,2h.1m5,-1h.1m5,0h.1m4,1h.1m5,-2h.1m5,2h.1m4,-1h.1m5,0h.1m5,1h.1m4,-2h.1m5,1h.1m5,1h.1m4,-1h.1m5,-1h.1" fill="none" stroke="#2a2521" stroke-width="3" stroke-linecap="round"/>
  <path d="M410,76 q3,-4 6,0 M438,76 q3,-4 6,0 t6,0 M474,76 q3,-4 6,0 M500,76 q3,-4 6,0" fill="none" stroke="#625a50" stroke-width="1.25" stroke-linecap="round"/>

  <!-- Tumstock bakom 2 mm -->
  <rect x="530" y="70" width="44" height="28" fill="#e8b830" fill-opacity="0.65" transform="rotate(-1.5 552 84)"/>

  <!-- Snickarpenna: pilen mot rötsnittet -->
  <path d="M486,296 Q472,286 466,266 M457,274 L466,265 L474,276" fill="none" stroke="#ad3519" stroke-width="2.5" stroke-linecap="round" stroke-linejoin="round"/>

  <!-- Handskrift (Caveat) -->
  <g font-family="'Caveat', 'Segoe Print', cursive" font-weight="500" font-size="24" fill="#2a2521">
    <path d="M411.3 55.1L410.4 54.2 410.2 51.4Q409.5 51.4 406.4 54.5 405.8 55.2 405.4 54.8L404.9 53.9 406 50.6Q405.4 50.6 402.8 53.4L401.3 55.1Q400.5 55.1 400.3 54.3L400.8 50.6 402 47.1Q402.7 46.3 403.4 47.1 403.8 47.7 403.4 48.8L402.6 51.3Q406.4 48.6 406.5 48.6L407.7 49.3Q408 49.8 407.4 51.4 407.3 51.7 407.6 51.5 410.6 48.8 411.5 50.1L411.8 51.9Q412 53.8 412.3 53.9 413.8 54.4 412.9 55L411.3 55.1ZM415.5 55.7L414.6 55.3Q413.6 54.2 413.8 53.4L414.1 51.5Q414.8 49.5 416.4 48.2L418.5 47Q419.6 46.8 420 47.3L420.8 47.9Q422.1 49.8 419.9 52.9L418.7 54.2Q417.1 55.6 415.5 55.7ZM417.9 53L419.4 50.5Q420.2 48.4 418.7 48.7 417 49 415.6 52.6L415.6 53.8Q416.1 54.9 417.9 53ZM417.6 45.4L417.2 44.5Q417.9 42.5 418.7 43 420 43.7 418.9 45L418.2 45.6Q417.8 45.7 417.6 45.4ZM420.9 45.4L420.5 44.5Q421.2 42.5 422 43 423.2 43.7 422.2 45L421.5 45.6Q421.1 45.7 420.9 45.4ZM425 60.7L423.6 60.6Q421.9 59.8 421.6 57.7 421.5 57 422.4 57.4L423.4 58.7Q424.7 59.7 425.7 56.6L427 52.6 425.2 54Q424.4 54.9 422.9 53.8 421.8 52.8 422.8 50L424.8 47.5Q426.1 46.4 427.2 46.7L428.5 47.4Q430.2 49.1 429.3 50.1L428.5 51.6Q427.7 56.8 426.1 59.4 425.5 60.4 425 60.7ZM424.2 52.8L425.9 52.1Q427.5 50.5 427.4 48.8L427.2 48.3Q426.5 47.6 424.9 49.7L424 52.1Q424 52.7 424.2 52.8ZM435.3 55.3L434.1 55.8Q432.5 55.9 431.6 54.7L431.1 53.6Q430.4 50.6 433 48 434.4 46.6 436.1 46.7L437.4 47.4Q438.6 48.5 437.3 50.2 435.7 52.3 433.5 51.3L432.8 51.4Q432.1 52.6 432.8 53.7 433.4 54.8 434.8 54L436.3 53.1 436.8 53.5Q437.6 53.9 435.3 55.3ZM435.2 50.1L436.5 48.8Q436.5 47.9 435.2 48.2L433.4 50 435.2 50.1ZM439.9 56.1L439.1 55.9Q438.5 55.1 438.9 53.3L440.7 47.7 443.3 40.5Q443.8 39.9 444.5 40.6L444.9 41.5 441.9 49 440.2 55 439.9 56.1ZM448.1 61.4L447.6 61.3Q447.3 60.9 447.6 59.2 448.3 55.7 450.2 50L451.7 45.9Q452 45.6 452.7 46.1L453 47.4 452.5 48.5Q455.4 47 456.5 49.1 457.4 50.9 455.9 52.4L454.1 53.9Q451.1 55.1 450.5 54.6L449.7 56.9 448.6 61.1Q448.4 61.4 448.1 61.4ZM451 53.3L453.9 52.2Q455.5 50.8 454.8 49.7L454.1 49.4Q452 49.7 451.1 52.3L451 53.3ZM458.4 55.3L457.7 54.2Q457.3 53.8 459.1 50.6L461.6 47.5Q463.1 46.1 464.1 47L466.3 48.8Q465.3 51.5 466.1 53L467.6 53.8 467.6 54.8Q467.1 55.5 465.8 54.7 464.4 53.9 464 52.1L463.4 52.9Q460 56.3 458.4 55.3ZM459.4 53.7L461 53Q463.2 51.1 464.3 49.3 463.1 46.6 460 52.3L459.4 53.7ZM465.5 46.2L464.2 45.7Q463 44.1 464.6 42.5 465.5 41.5 466.9 42.4 467.8 43.1 467.2 44.7 466.6 46.2 465.5 46.2ZM465.4 45.1L466.1 44.8 466.2 43.5 465.7 43.2Q464.8 43.2 464.8 44.3L465.4 45.1ZM473.9 60.8L472.5 60.9Q470.9 60.7 470.7 59.8L471.2 59.1 473.3 59.6Q474.2 59.4 475.2 58L479 50.7Q480.1 47.4 480.7 47.2L481.4 47.1Q482.2 47.9 481.4 49.4L478.3 56.2Q475.7 60.3 473.9 60.8ZM477.1 55.2L475.8 53.9Q475 52.2 475.2 49.1L475.4 46.9Q476.2 45.9 476.7 47L477.1 53 477.8 54.2 477.1 55.2ZM484.6 55.9L483.6 55Q482.7 53.8 483.3 51.3L484.7 47.7Q483.4 47.3 483.4 47L483.9 46.2Q485.5 46.5 485.7 45.8L487.4 42.8Q488 42.4 488.6 42.9L488.8 43.3 487.6 46 489.9 46 490.3 46.6Q490.4 47.4 489.1 47.4L486.5 47.8Q485.3 49.3 484.6 53.3L484.7 54.1Q485 54.8 487 54.2L489 53.3Q490 54.1 488.3 55.1L486.2 55.9Q485.3 56 484.6 55.9ZM491.1 55.3L490.4 54.2Q490 53.8 491.7 50.6L494.3 47.5Q495.8 46.1 496.8 47L498.9 48.8Q498 51.5 498.8 53L500.3 53.8 500.3 54.8Q499.8 55.5 498.4 54.7 497.1 53.9 496.7 52.1L496 52.9Q492.7 56.3 491.1 55.3ZM492.1 53.7L493.7 53Q495.9 51.1 497 49.3 495.8 46.6 492.7 52.3L492.1 53.7ZM509.7 55.1L508.9 54.9Q507.7 54.1 508.3 52L508.1 50.8Q507.3 50.5 503.7 53.6L502.6 54.8Q502 55.2 501.3 53.8L502.5 50.4 503.7 47.3 504.8 47.6Q505.6 48.5 504.4 50.5L504 51.5 508 48.9Q508.6 48.6 509.4 49.4 510 49.9 509.8 52.1 509.8 53.5 510.2 54.2L510.2 54.7Q510.1 55 509.7 55.1Z" fill="#2a2521"/>
    <path d="M536.8 91.6L535.9 90.6Q535.8 90.5 536.6 89.3L541 84.4 542.8 82.2Q543.2 81.4 542.3 81.1L541.1 81 538.6 81.9Q537.1 81.2 538.6 80.3 540.7 79 542 79.4L543.2 79.7Q545.4 81.3 543.8 83.8L538.4 89.5 542.5 89 544.7 89.3 545.1 89.8Q546.2 90.8 543.9 90.3L540 90.8 536.8 91.6ZM563 91.1L562.1 90.2 561.8 87.4Q561.1 87.4 558.1 90.5 557.5 91.2 557 90.8L556.5 89.9 557.6 86.6Q557.1 86.6 554.5 89.4L552.9 91.1Q552.1 91.1 551.9 90.3L552.5 86.6 553.6 83.1Q554.3 82.3 555 83.1 555.4 83.7 555 84.8L554.2 87.3Q558 84.6 558.2 84.6L559.3 85.3Q559.6 85.8 559 87.4 558.9 87.7 559.2 87.5 562.2 84.8 563.1 86.1L563.5 87.9Q563.6 89.8 563.9 89.9 565.4 90.4 564.5 91L563 91.1ZM576.5 91.1L575.6 90.2 575.3 87.4Q574.6 87.4 571.6 90.5 571 91.2 570.5 90.8L570 89.9 571.2 86.6Q570.6 86.6 568 89.4L566.4 91.1Q565.6 91.1 565.4 90.3L566 86.6 567.1 83.1Q567.8 82.3 568.5 83.1 568.9 83.7 568.5 84.8L567.7 87.3Q571.5 84.6 571.7 84.6L572.8 85.3Q573.1 85.8 572.6 87.4 572.5 87.7 572.7 87.5 575.7 84.8 576.6 86.1L577 87.9Q577.1 89.8 577.5 89.9 578.9 90.4 578 91L576.5 91.1Z" fill="#2a2521"/>
    <path d="M445.5 319.2L445.2 318.9Q444.3 317.7 447 311.8 447.9 309.9 448.7 310.7L448.8 311.5 447.7 314.5Q448.3 313.3 451.2 311.9L452.4 311.7 453.5 312.6 452.6 313.1Q450.5 313.2 448.2 315.8L447.2 317.3Q446.4 320.1 445.5 319.2ZM455.3 319.7L454.4 319.3Q453.4 318.2 453.6 317.4L453.9 315.5Q454.6 313.5 456.2 312.2L458.3 311Q459.3 310.8 459.8 311.3L460.6 311.9Q461.9 313.8 459.7 316.9L458.5 318.2Q456.9 319.6 455.3 319.7ZM457.7 317L459.1 314.5Q460 312.4 458.5 312.7 456.8 313 455.4 316.6L455.3 317.8Q455.9 318.9 457.7 317ZM457.4 309.4L457 308.5Q457.7 306.5 458.5 307 459.7 307.7 458.7 309L458 309.6Q457.6 309.7 457.4 309.4ZM460.7 309.4L460.3 308.5Q461 306.5 461.8 307 463 307.7 462 309L461.2 309.6Q460.9 309.7 460.7 309.4ZM464 319.9L462.9 319Q462.1 317.8 462.7 315.3L464.1 311.7Q462.7 311.3 462.7 311L463.3 310.2Q464.8 310.5 465.1 309.8L466.8 306.8Q467.3 306.4 468 306.9L468.2 307.3 466.9 310 469.3 310 469.7 310.6Q469.8 311.4 468.4 311.4L465.9 311.8Q464.7 313.3 464 317.3L464 318.1Q464.4 318.8 466.3 318.2L468.4 317.3Q469.4 318.1 467.6 319.1L465.6 319.9Q464.6 320 464 319.9ZM470.4 319.3L469.7 318.2Q469.4 317.8 471.1 314.6L473.6 311.5Q475.2 310.1 476.2 311L478.3 312.8Q477.3 315.5 478.2 317L479.6 317.8 479.7 318.8Q479.1 319.5 477.8 318.7 476.4 317.9 476.1 316.1L475.4 316.9Q472.1 320.3 470.4 319.3ZM471.4 317.7L473 317Q475.2 315.1 476.3 313.3 475.2 310.6 472.1 316.3L471.4 317.7ZM486.7 319.4L486.3 318.2 488 312.8 488.4 312.5Q488.8 312.4 489.3 313.2L489.5 313.7 487.4 319.6Q487.1 319.8 486.7 319.4ZM489.1 309.7L488.7 308.6 489.7 307.1Q490.4 306.6 491 307.6L491.1 308.4Q490.8 309.6 489.8 309.8 489.4 309.9 489.1 309.7ZM498.7 319.9L497.6 319Q496.7 317.8 497.3 315.3L498.7 311.7Q497.4 311.3 497.4 311L497.9 310.2Q499.5 310.5 499.7 309.8L501.5 306.8Q502 306.4 502.7 306.9L502.9 307.3 501.6 310 504 310 504.3 310.6Q504.4 311.4 503.1 311.4L500.6 311.8Q499.4 313.3 498.7 317.3L498.7 318.1Q499 318.8 501 318.2L503 317.3Q504.1 318.1 502.3 319.1L500.3 319.9Q499.3 320 498.7 319.9ZM505.3 319.2L504.9 318.9Q504.1 317.7 506.8 311.8 507.6 309.9 508.4 310.7L508.6 311.5 507.5 314.5Q508.1 313.3 510.9 311.9L512.1 311.7 513.2 312.6 512.3 313.1Q510.2 313.2 507.9 315.8L507 317.3Q506.1 320.1 505.3 319.2ZM513.7 319.3L513 318.2Q512.7 317.8 514.4 314.6L516.9 311.5Q518.5 310.1 519.5 311L521.6 312.8Q520.6 315.5 521.5 317L522.9 317.8 523 318.8Q522.4 319.5 521.1 318.7 519.7 317.9 519.4 316.1L518.7 316.9Q515.4 320.3 513.7 319.3ZM514.7 317.7L516.3 317Q518.5 315.1 519.6 313.3 518.5 310.6 515.4 316.3L514.7 317.7ZM518.2 309.4L517.8 308.5Q518.4 306.5 519.3 307 520.5 307.7 519.4 309L518.7 309.6Q518.4 309.7 518.2 309.4ZM521.5 309.4L521.1 308.5Q521.7 306.5 522.6 307 523.8 307.7 522.7 309L522 309.6Q521.7 309.7 521.5 309.4ZM528.3 319.3L527 319.8Q525.5 319.9 524.6 318.7L524.1 317.6Q523.4 314.6 526 312 527.3 310.6 529 310.7L530.4 311.4Q531.6 312.5 530.3 314.2 528.7 316.3 526.4 315.3L525.8 315.4Q525.1 316.6 525.7 317.7 526.3 318.8 527.8 318L529.2 317.1 529.8 317.5Q530.5 317.9 528.3 319.3ZM528.2 314.1L529.4 312.8Q529.4 311.9 528.2 312.2L526.4 314 528.2 314.1ZM533.6 319.9L532.6 319Q531.7 317.8 532.3 315.3L533.7 311.7Q532.3 311.3 532.3 311L532.9 310.2Q534.5 310.5 534.7 309.8L536.4 306.8Q537 306.4 537.6 306.9L537.8 307.3 536.6 310 538.9 310 539.3 310.6Q539.4 311.4 538.1 311.4L535.5 311.8Q534.3 313.3 533.6 317.3L533.6 318.1Q534 318.8 536 318.2L538 317.3Q539 318.1 537.2 319.1L535.2 319.9Q534.2 320 533.6 319.9Z" fill="#2a2521"/>
    <path d="M131.8 337.1L130.4 335.9Q130.4 335.4 132.1 335.7L134 335.3 131.5 333.1 130.9 331.7Q130.9 330.4 132.2 329.2L134.5 327.5Q136.2 326.5 137.1 327L138.2 328.2Q138.2 329.7 137.8 329.8L137.4 330.5Q136.3 331.2 136.1 330.7L135.7 329.9Q137.1 328.3 136.4 328.3L133.7 329.9Q132.5 331.2 132.5 332L133.2 332.9Q137.2 335.8 134.8 336.9L131.8 337.1ZM140.7 336.9L139.7 336Q138.8 334.8 139.4 332.3L140.8 328.7Q139.4 328.3 139.4 328L140 327.2Q141.6 327.5 141.8 326.8L143.5 323.8Q144.1 323.4 144.7 323.9L144.9 324.3 143.7 327 146 327 146.4 327.6Q146.5 328.4 145.2 328.4L142.6 328.8Q141.4 330.3 140.7 334.3L140.7 335.1Q141.1 335.8 143.1 335.2L145.1 334.3Q146.1 335.1 144.3 336.1L142.3 336.9Q141.3 337 140.7 336.9ZM147.3 336.2L146.9 335.9Q146.1 334.7 148.8 328.8 149.7 326.9 150.5 327.7L150.6 328.5 149.5 331.5Q150.1 330.3 153 328.9L154.1 328.7 155.3 329.6 154.4 330.1Q152.3 330.2 150 332.8L149 334.3Q148.2 337.1 147.3 336.2ZM157.1 336.7L156.2 336.3Q155.2 335.2 155.3 334.4L155.7 332.5Q156.4 330.5 158 329.2L160.1 328Q161.1 327.8 161.6 328.3L162.4 328.9Q163.6 330.8 161.4 333.9L160.3 335.2Q158.7 336.6 157.1 336.7ZM159.5 334L160.9 331.5Q161.8 329.4 160.3 329.7 158.6 330 157.2 333.6L157.1 334.8Q157.6 335.9 159.5 334ZM159.2 326.4L158.8 325.5Q159.4 323.5 160.3 324 161.5 324.7 160.4 326L159.7 326.6Q159.4 326.7 159.2 326.4ZM162.5 326.4L162.1 325.5Q162.7 323.5 163.6 324 164.8 324.7 163.7 326L163 326.6Q162.7 326.7 162.5 326.4ZM164.8 337.1L164 336.9Q163.3 336.1 163.7 334.3L165.6 328.7 168.2 321.5Q168.7 320.9 169.4 321.6L169.7 322.5 166.7 330 165.1 336 164.8 337.1ZM168.4 336.3L167.7 335.2Q167.3 334.8 169 331.6L171.5 328.5Q173.1 327.1 174.1 328L176.2 329.8Q175.3 332.5 176.1 334L177.6 334.8 177.6 335.8Q177.1 336.5 175.7 335.7 174.4 334.9 174 333.1L173.3 333.9Q170 337.3 168.4 336.3ZM169.4 334.7L171 334Q173.2 332.1 174.3 330.3 173.1 327.6 170 333.3L169.4 334.7ZM172.8 326.4L172.4 325.5Q173.1 323.5 173.9 324 175.2 324.7 174.1 326L173.4 326.6Q173 326.7 172.8 326.4ZM176.1 326.4L175.7 325.5Q176.4 323.5 177.2 324 178.4 324.7 177.4 326L176.7 326.6Q176.3 326.7 176.1 326.4ZM179 337L178.1 336Q177.9 335.5 178.7 333L183.5 321.5Q183.5 321 184.3 321L185 322Q185 322.4 182.3 328.8L181.5 331 185.7 328.6Q187.2 329.1 185.5 330.3L182.5 332.1 184.5 335.4 186.2 335.3Q187.1 335.6 186.3 336.4L185.3 337Q184.1 337.4 182.1 334.8L181.1 332.9Q180.3 332.8 179.8 335.4L179.5 336.8Q179.4 337 179 337ZM189.5 336.9L188.4 336Q187.5 334.8 188.1 332.3L189.5 328.7Q188.2 328.3 188.2 328L188.7 327.2Q190.3 327.5 190.5 326.8L192.2 323.8Q192.8 323.4 193.4 323.9L193.7 324.3 192.4 327 194.8 327 195.1 327.6Q195.2 328.4 193.9 328.4L191.3 328.8Q190.2 330.3 189.4 334.3L189.5 335.1Q189.8 335.8 191.8 335.2L193.8 334.3Q194.9 335.1 193.1 336.1L191 336.9Q190.1 337 189.5 336.9ZM200 336.3L198.7 336.8Q197.1 336.9 196.2 335.7L195.7 334.6Q195.1 331.6 197.6 329 199 327.6 200.7 327.7L202 328.4Q203.2 329.5 201.9 331.2 200.3 333.3 198.1 332.3L197.4 332.4Q196.7 333.6 197.4 334.7 198 335.8 199.4 335L200.9 334.1 201.4 334.5Q202.2 334.9 200 336.3ZM199.8 331.1L201.1 329.8Q201.1 328.9 199.9 329.2L198.1 331 199.8 331.1ZM211.9 336.1L211.1 335.9Q209.8 335.1 210.4 333L210.3 331.8Q209.5 331.5 205.8 334.6L204.8 335.8Q204.1 336.2 203.4 334.8L204.6 331.4 205.8 328.3 206.9 328.6Q207.8 329.5 206.5 331.5L206.1 332.5 210.1 329.9Q210.7 329.6 211.6 330.4 212.1 330.9 212 333.1 211.9 334.5 212.3 335.2L212.4 335.7Q212.2 336 211.9 336.1ZM215.6 337.1L214.2 335.9Q214.2 335.4 215.9 335.7L217.8 335.3 215.3 333.1 214.7 331.7Q214.7 330.4 216 329.2L218.3 327.5Q220 326.5 220.9 327L222.1 328.2Q222.1 329.7 221.6 329.8L221.2 330.5Q220.1 331.2 219.9 330.7L219.5 329.9Q220.9 328.3 220.2 328.3L217.5 329.9Q216.3 331.2 216.3 332L217 332.9Q221 335.8 218.6 336.9L215.6 337.1ZM228.7 336.2L228.4 335.9Q227.5 334.7 230.2 328.8 231.1 326.9 231.9 327.7L232 328.5 230.9 331.5Q231.6 330.3 234.4 328.9L235.6 328.7 236.7 329.6 235.8 330.1Q233.7 330.2 231.4 332.8L230.4 334.3Q229.6 337.1 228.7 336.2ZM237.2 336.3L236.5 335.2Q236.1 334.8 237.9 331.6L240.4 328.5Q242 327.1 243 328L245.1 329.8Q244.1 332.5 245 334L246.4 334.8 246.4 335.8Q245.9 336.5 244.6 335.7 243.2 334.9 242.9 333.1L242.2 333.9Q238.8 337.3 237.2 336.3ZM238.2 334.7L239.8 334Q242 332.1 243.1 330.3 241.9 327.6 238.8 333.3L238.2 334.7ZM241.6 326.4L241.3 325.5Q241.9 323.5 242.8 324 244 324.7 242.9 326L242.2 326.6Q241.9 326.7 241.6 326.4ZM244.9 326.4L244.5 325.5Q245.2 323.5 246.1 324 247.3 324.7 246.2 326L245.5 326.6Q245.2 326.7 244.9 326.4ZM255.8 336.1L255 335.9Q253.8 335.1 254.4 333L254.2 331.8Q253.4 331.5 249.8 334.6L248.7 335.8Q248.1 336.2 247.4 334.8L248.6 331.4 249.8 328.3 250.9 328.6Q251.7 329.5 250.5 331.5L250.1 332.5 254 329.9Q254.7 329.6 255.5 330.4 256 330.9 255.9 333.1 255.9 334.5 256.3 335.2L256.3 335.7Q256.2 336 255.8 336.1ZM264.7 337.5L264.1 337.3Q263.4 336.8 263.5 334.8L263.5 334.2Q260.9 336.4 259.7 336.4L258.2 335.1Q257.7 334 259 331.6 261 327.7 263.5 329.2L264.2 329.4 266.9 322.4Q267.4 321.2 268.3 321.8 269 322.3 268.6 323.2L265.6 330.9 265.2 336.3Q265.6 337.4 264.7 337.5ZM260.6 334.7L263.1 333Q264.6 331.6 263.3 330.5L262.6 330.4Q260.5 330.5 259.7 334.4L259.9 334.7Q260.1 334.8 260.6 334.7ZM272.1 336.3L270.9 336.8Q269.3 336.9 268.4 335.7L267.9 334.6Q267.2 331.6 269.8 329 271.2 327.6 272.9 327.7L274.2 328.4Q275.4 329.5 274.1 331.2 272.5 333.3 270.3 332.3L269.6 332.4Q268.9 333.6 269.6 334.7 270.2 335.8 271.6 335L273.1 334.1 273.6 334.5Q274.4 334.9 272.1 336.3ZM272 331.1L273.3 329.8Q273.3 328.9 272 329.2L270.2 331 272 331.1ZM276.1 336.2L275.7 335.9Q274.9 334.7 277.6 328.8 278.5 326.9 279.3 327.7L279.4 328.5 278.3 331.5Q278.9 330.3 281.8 328.9L282.9 328.7 284.1 329.6 283.2 330.1Q281.1 330.2 278.8 332.8L277.8 334.3Q277 337.1 276.1 336.2Z" fill="#2a2521"/>
  </g>
</svg>
