<svg xmlns="http://www.w3.org/2000/svg" viewBox="0 0 600 360" width="600" height="360" role="img" aria-label="Staplar över hur många fasadfärger som klarade Folksams krav på hållbarhet och miljö 2015 och 2018.">
  <!-- Diagram i Anteckningsbokens hand. Axlar och etiketter i blyerts-2, Atkinson Hyperlegible 22.
       Hållbarheten i blyerts 2 px utan fyllning, miljö och hälsa i blyerts-2 2 px fylld med linje,
       båda i snickarpenna 2,5 px, som är den enda serien i penna. Tumstock bakom 2018 års 4.
       En enda anteckning i Caveat 24 i penna.
       Talen ur tabellen i src/content/kunskap/fasad/valja-fasadfarg.mdx, läst 2026-09-28:
       2015: 45 färger, 9 hållbarheten, 16 miljö och hälsa, 4 båda.
       2018: 46 färgsystem, 31 hållbarheten, 5 miljö och hälsa, 4 båda (efter rättelsen 2018-05-25).
       Källa: Folksams test av utomhusfärger 2015 och 2018. Ändras tabellen ritas staplarna om.
       Skala 4,4 px per färg, nollinje y 290, axeln till 50 (y 70).
       Spec: docs/briefer/spec-bilder-fasad-2026-09-28.md avsnitt 3.
       Etiketterna skrivna av hantverkaren 2026-09-28.
       Tokens: papper #f5efe3, linje #c9bca3, blyerts #2a2521, blyerts-2 #625a50, penna #ad3519, tumstock #e8b830 -->
  <defs>
    <pattern id="linjerat" width="48" height="24" patternUnits="userSpaceOnUse">
      <rect width="48" height="24" fill="#f5efe3"/>
      <path d="M0,23.5 H48" stroke="#c9bca3" stroke-width="0.75" fill="none"/>
    </pattern>
  </defs>
  <rect width="600" height="360" fill="url(#linjerat)"/>
  <path d="M40,0 V360" stroke="#ad3519" stroke-width="0.75" stroke-opacity="0.35" fill="none"/>

  <!-- Y-axeln med skalstreck i blyerts-2 -->
  <g fill="none" stroke="#625a50" stroke-width="1.5" stroke-linecap="round">
    <path d="M80,290 Q79,180 80,70"/>
    <path d="M74,290 h6M74,246 h6M74,202 h6M74,158 h6M74,114 h6M74,70 h6"/>
  </g>
  <g font-family="'Atkinson Hyperlegible', system-ui, sans-serif" font-size="22" fill="#625a50" text-anchor="end">
    <path d="M64.9 297.8L64.9 297.8Q59.1 297.8 59.1 290.1L59.1 290.1Q59.1 282.5 64.9 282.5L64.9 282.5Q70.7 282.5 70.7 290.1L70.7 290.1Q70.7 297.8 64.9 297.8ZM62.5 285L68.3 293.3Q69.6 288.8 67.7 285.7 66.8 284.2 64.9 284.2L64.9 284.2Q63.4 284.2 62.5 285L62.5 285ZM64.9 296.1L64.9 296.1Q66.4 296.1 67.3 295.1L61.5 286.8Q60.1 291.3 62 294.6 62.9 296.1 64.9 296.1Z" fill="#625a50"/>
    <path d="M55.6 253.5L53.7 253.5 53.7 242.4 49.8 242.4 49.8 240.9Q53.6 240.9 54.4 238.8L55.6 238.8 55.6 253.5ZM64.9 253.8L64.9 253.8Q59.1 253.8 59.1 246.1L59.1 246.1Q59.1 238.5 64.9 238.5L64.9 238.5Q70.7 238.5 70.7 246.1L70.7 246.1Q70.7 253.8 64.9 253.8ZM62.5 241L68.3 249.3Q69.6 244.8 67.7 241.7 66.8 240.2 64.9 240.2L64.9 240.2Q63.4 240.2 62.5 241L62.5 241ZM64.9 252.1L64.9 252.1Q66.4 252.1 67.3 251.1L61.5 242.8Q60.1 247.3 62 250.6 62.9 252.1 64.9 252.1Z" fill="#625a50"/>
    <path d="M57 209.5L46.4 209.5 46.4 207.8Q54.6 201.8 54.6 198.6L54.6 198.6Q54.6 196.1 51.9 196.1L50 196.6Q49.1 197.2 48.8 198.5L47 198Q47.8 194.5 51.9 194.5L54.3 195Q56.6 196 56.6 198.4L56 200.9Q54.6 203.7 48.9 207.8L57 207.8 57 209.5ZM64.9 209.8L64.9 209.8Q59.1 209.8 59.1 202.1L59.1 202.1Q59.1 194.5 64.9 194.5L64.9 194.5Q70.7 194.5 70.7 202.1L70.7 202.1Q70.7 209.8 64.9 209.8ZM62.5 197L68.3 205.3Q69.6 200.8 67.7 197.7 66.8 196.2 64.9 196.2L64.9 196.2Q63.4 196.2 62.5 197L62.5 197ZM64.9 208.1L64.9 208.1Q66.4 208.1 67.3 207.1L61.5 198.8Q60.1 203.3 62 206.6 62.9 208.1 64.9 208.1Z" fill="#625a50"/>
    <path d="M51.1 165.8L48.6 165.3Q46.6 164.4 46 162.2L47.9 161.7Q48.4 164.2 51.1 164.2L51.1 164.2Q54.4 164.2 54.4 161.4L54.1 160Q53.2 158.6 49.9 158.6L49.9 156.9Q54.1 156.9 54.1 154.5L54.1 154.5Q54.1 152.1 51.2 152.1L51.2 152.1Q48.6 152.1 48.1 154.5L46.3 154Q47.1 150.5 51.3 150.5L53.6 150.9Q56 151.7 56 154.3L55.4 156.3 53.6 157.7Q56.4 158.6 56.4 161.4L56.4 161.4Q56.4 165.8 51.1 165.8ZM64.9 165.8L64.9 165.8Q59.1 165.8 59.1 158.1L59.1 158.1Q59.1 150.5 64.9 150.5L64.9 150.5Q70.7 150.5 70.7 158.1L70.7 158.1Q70.7 165.8 64.9 165.8ZM62.5 153L68.3 161.3Q69.6 156.8 67.7 153.7 66.8 152.2 64.9 152.2L64.9 152.2Q63.4 152.2 62.5 153L62.5 153ZM64.9 164.1L64.9 164.1Q66.4 164.1 67.3 163.1L61.5 154.8Q60.1 159.3 62 162.6 62.9 164.1 64.9 164.1Z" fill="#625a50"/>
    <path d="M54.2 121.5L52.4 121.5 52.4 117.9 45.1 117.9 45.1 116.1 52.4 106.8 54.2 106.8 54.2 116.1 56.9 116.1 56.9 117.9 54.2 117.9 54.2 121.5ZM52.4 109.3L47.1 116.1 52.4 116.1 52.4 109.3ZM64.9 121.8L64.9 121.8Q59.1 121.8 59.1 114.1L59.1 114.1Q59.1 106.5 64.9 106.5L64.9 106.5Q70.7 106.5 70.7 114.1L70.7 114.1Q70.7 121.8 64.9 121.8ZM62.5 109L68.3 117.3Q69.6 112.8 67.7 109.7 66.8 108.2 64.9 108.2L64.9 108.2Q63.4 108.2 62.5 109L62.5 109ZM64.9 120.1L64.9 120.1Q66.4 120.1 67.3 119.1L61.5 110.8Q60.1 115.3 62 118.6 62.9 120.1 64.9 120.1Z" fill="#625a50"/>
    <path d="M51.2 77.8L48.7 77.3Q46.7 76.4 46.1 74.2L47.9 73.7Q48.5 76.2 51.2 76.2L52.8 75.8Q54.4 74.9 54.4 72.7L53.9 70.7Q53 69.2 51.1 69.2L49.3 69.7 48.3 70.8 46.5 70.3 47.4 62.8 55.8 62.8 55.8 64.6 48.9 64.6 48.4 68.7Q49.5 67.6 51.6 67.6L53.9 68.2Q56.4 69.5 56.4 72.7L56.4 72.7Q56.4 77.8 51.2 77.8ZM64.9 77.8L64.9 77.8Q59.1 77.8 59.1 70.1L59.1 70.1Q59.1 62.5 64.9 62.5L64.9 62.5Q70.7 62.5 70.7 70.1L70.7 70.1Q70.7 77.8 64.9 77.8ZM62.5 65L68.3 73.3Q69.6 68.8 67.7 65.7 66.8 64.2 64.9 64.2L64.9 64.2Q63.4 64.2 62.5 65L62.5 65ZM64.9 76.1L64.9 76.1Q66.4 76.1 67.3 75.1L61.5 66.8Q60.1 71.3 62 74.6 62.9 76.1 64.9 76.1Z" fill="#625a50"/>
  </g>

  <!-- Antalet färger i testet: tunn streckad linje över varje grupp, 45 (y 92) och 46 (y 87,6) -->
  <g fill="none" stroke="#c9bca3" stroke-width="1.5" stroke-linecap="round" stroke-dasharray="6 6">
    <path d="M120,92 H290M350,87.6 H520"/>
  </g>
  <g font-family="'Atkinson Hyperlegible', system-ui, sans-serif" font-size="22" fill="#625a50">
    <path d="M306 99.5L304.1 99.5 304.1 95.9 296.8 95.9 296.8 94.1 304.1 84.8 306 84.8 306 94.1 308.7 94.1 308.7 95.9 306 95.9 306 99.5ZM304.1 87.3L298.8 94.1 304.1 94.1 304.1 87.3ZM315.3 99.8L312.8 99.3Q310.9 98.4 310.3 96.2L312.1 95.7Q312.6 98.2 315.3 98.2L317 97.8Q318.6 96.9 318.6 94.7L318.1 92.7Q317.2 91.2 315.3 91.2L313.4 91.7 312.5 92.8 310.7 92.3 311.6 84.8 320 84.8 320 86.6 313.1 86.6 312.6 90.7Q313.7 89.6 315.7 89.6L318.1 90.2Q320.6 91.5 320.6 94.7L320.6 94.7Q320.6 99.8 315.3 99.8Z" fill="#625a50"/>
    <path d="M536 95L534.1 95 534.1 91.4 526.8 91.4 526.8 89.6 534.1 80.3 536 80.3 536 89.6 538.7 89.6 538.7 91.4 536 91.4 536 95ZM534.1 82.8L528.8 89.6 534.1 89.6 534.1 82.8ZM546.2 95.3L546.2 95.3Q540.8 95.3 540.8 88.2L541.1 85.2Q542.2 80 546.6 80L546.6 80Q549.6 80 550.7 82.4L548.8 82.9Q548.1 81.6 546.4 81.6L546.4 81.6Q542.9 81.6 542.7 87.3L544.2 85.8Q546.5 84.3 549 85.8 551.3 87.2 551.3 90.2L550.7 92.7Q549.3 95.3 546.2 95.3ZM546.2 93.7L546.2 93.7Q549.4 93.7 549.4 90.3L549.4 90.3Q549.4 86.8 546.2 86.8L546.2 86.8Q543 86.8 543 90.3L543 90.3Q543 93.7 546.2 93.7Z" fill="#625a50"/>
  </g>

  <!-- Miljö och hälsa: blyerts-2 2 px, fylld med linje -->
  <g fill="#c9bca3" stroke="#625a50" stroke-width="2" stroke-linecap="round" stroke-linejoin="round">
    <path d="M181,290 Q180.2,254.8 181.3,219.6 H229 Q229.8,254.8 229,290 Z"/>
    <path d="M411,290 Q410.4,279 411.2,268 H459 Q459.6,279 459,290 Z"/>
  </g>

  <!-- Hållbarheten: blyerts 2 px, ingen fyllning -->
  <g fill="none" stroke="#2a2521" stroke-width="2" stroke-linecap="round" stroke-linejoin="round">
    <path d="M120,291 Q119.3,270.7 120.4,250.4 H168 Q168.7,270.7 168,291"/>
    <path d="M350,291 Q348.8,222.3 350.5,153.6 H398 Q399.2,222.3 398,291"/>
  </g>

  <!-- Båda: snickarpenna 2,5 px, ingen fyllning -->
  <g fill="none" stroke="#ad3519" stroke-width="2.5" stroke-linecap="round" stroke-linejoin="round">
    <path d="M242,291 Q241.5,281.7 242.3,272.4 H290 Q290.5,281.7 290,291"/>
    <path d="M472,291 Q471.5,281.7 472.3,272.4 H520 Q520.5,281.7 520,291"/>
  </g>

  <!-- X-axeln i blyerts, över staplarnas fötter -->
  <path d="M80,290 Q320,291 560,290" fill="none" stroke="#2a2521" stroke-width="2" stroke-linecap="round"/>

  <!-- Tumstock bakom 2018 års 4, som enda markering -->
  <rect x="485" y="248" width="22" height="24" fill="#e8b830" fill-opacity="0.65" transform="rotate(-1.5 496 260)"/>

  <!-- Talen ovanför staplarna, 6 px över stapeln -->
  <g font-family="'Atkinson Hyperlegible', system-ui, sans-serif" font-size="22" fill="#2a2521" text-anchor="middle">
    <path d="M144.4 244.4L142.1 244.4 145.2 239.8Q141.5 240.7 139.5 237.3 137.9 234.7 139.4 232.1 141 229.5 144 229.5L146.7 230.2Q149.3 231.7 149.3 234.7L148.9 236.7 144.4 244.4ZM144 238.1L145.7 237.6Q147.4 236.6 147.4 234.7L146.9 233Q145.9 231.3 144 231.3L142.3 231.8Q140.6 232.8 140.6 234.7L141.1 236.4Q142.1 238.1 144 238.1Z" fill="#2a2521"/>
    <path d="M200.7 213.6L198.8 213.6 198.8 202.5 194.9 202.5 194.9 201Q198.7 201 199.5 198.9L200.7 198.9 200.7 213.6ZM209.5 213.9L209.5 213.9Q204.2 213.9 204.2 206.8L204.5 203.8Q205.5 198.6 209.9 198.6L209.9 198.6Q212.9 198.6 214 201L212.2 201.5Q211.5 200.2 209.7 200.2L209.7 200.2Q206.2 200.2 206.1 205.9L207.5 204.4Q209.9 202.9 212.4 204.4 214.7 205.8 214.7 208.8L214 211.3Q212.6 213.9 209.5 213.9ZM209.5 212.3L209.5 212.3Q212.7 212.3 212.7 208.9L212.7 208.9Q212.7 205.4 209.5 205.4L209.5 205.4Q206.3 205.4 206.3 208.9L206.3 208.9Q206.3 212.3 209.5 212.3Z" fill="#2a2521"/>
    <path d="M269.2 266.4L267.4 266.4 267.4 262.8 260.1 262.8 260.1 261 267.4 251.7 269.2 251.7 269.2 261 271.9 261 271.9 262.8 269.2 262.8 269.2 266.4ZM267.4 254.2L262.1 261 267.4 261 267.4 254.2Z" fill="#2a2521"/>
    <path d="M369.2 147.9L366.7 147.4Q364.8 146.5 364.2 144.3L366 143.8Q366.6 146.3 369.3 146.3L369.3 146.3Q372.6 146.3 372.6 143.5L372.2 142.1Q371.3 140.7 368.1 140.7L368.1 139Q372.2 139 372.2 136.6L372.2 136.6Q372.2 134.2 369.4 134.2L369.4 134.2Q366.7 134.2 366.2 136.6L364.4 136.1Q365.3 132.6 369.4 132.6L371.8 133Q374.2 133.8 374.2 136.4L373.5 138.4 371.8 139.8Q374.6 140.7 374.6 143.5L374.6 143.5Q374.6 147.9 369.2 147.9ZM382.6 147.6L380.7 147.6 380.7 136.5 376.8 136.5 376.8 135Q380.6 135 381.3 132.9L382.6 132.9 382.6 147.6Z" fill="#2a2521"/>
    <path d="M434.8 262.3L432.3 261.8Q430.4 260.9 429.8 258.7L431.6 258.1Q432.1 260.7 434.8 260.7L436.5 260.3Q438.1 259.4 438.1 257.2L437.6 255.2Q436.7 253.7 434.8 253.7L432.9 254.2 432 255.3 430.2 254.8 431.1 247.3 439.5 247.3 439.5 249.1 432.6 249.1 432.1 253.2Q433.2 252.1 435.2 252.1L437.6 252.7Q440 254 440 257.2L440 257.2Q440 262.3 434.8 262.3Z" fill="#2a2521"/>
    <path d="M499.2 266.4L497.4 266.4 497.4 262.8 490.1 262.8 490.1 261 497.4 251.7 499.2 251.7 499.2 261 501.9 261 501.9 262.8 499.2 262.8 499.2 266.4ZM497.4 254.2L492.1 261 497.4 261 497.4 254.2Z" fill="#2a2521"/>
  </g>

  <!-- Gruppetiketterna: årtalet på y 318, andra raden på y 344 om hantverkaren vill ha den (högst 14 tecken) -->
  <g font-family="'Atkinson Hyperlegible', system-ui, sans-serif" font-size="22" fill="#625a50" text-anchor="middle">
    <path d="M192.3 318L181.7 318 181.7 316.4Q190 310.3 190 307.1L190 307.1Q190 304.6 187.2 304.6L185.3 305.1Q184.4 305.7 184.1 307L182.3 306.5Q183.2 303 187.3 303L189.7 303.5Q191.9 304.5 191.9 306.9L191.3 309.4Q189.9 312.2 184.2 316.3L192.3 316.3 192.3 318ZM200.2 318.3L200.2 318.3Q194.4 318.3 194.4 310.6L194.4 310.6Q194.4 303 200.2 303L200.2 303Q206 303 206 310.6L206 310.6Q206 318.3 200.2 318.3ZM197.8 305.5L203.6 313.8Q204.9 309.3 203.1 306.2 202.1 304.7 200.2 304.7L200.2 304.7Q198.8 304.7 197.8 305.5L197.8 305.5ZM200.2 316.6L200.2 316.6Q201.7 316.6 202.6 315.6L196.8 307.3Q195.4 311.8 197.3 315.1 198.3 316.6 200.2 316.6ZM214 318L212.2 318 212.2 306.9 208.3 306.9 208.3 305.4Q212.1 305.4 212.8 303.3L214 303.3 214 318ZM222.4 318.3L219.9 317.8Q218 316.9 217.4 314.7L219.2 314.1Q219.7 316.7 222.4 316.7L224.1 316.3Q225.7 315.4 225.7 313.2L225.2 311.2Q224.2 309.7 222.4 309.7L220.5 310.2 219.6 311.3 217.8 310.8 218.7 303.3 227.1 303.3 227.1 305.1 220.2 305.1 219.7 309.2Q220.8 308.1 222.8 308.1L225.2 308.7Q227.6 310 227.6 313.2L227.6 313.2Q227.6 318.3 222.4 318.3Z" fill="#625a50"/>
    <path d="M422 318L411.4 318 411.4 316.4Q419.6 310.3 419.6 307.1L419.6 307.1Q419.6 304.6 416.9 304.6L414.9 305.1Q414.1 305.7 413.8 307L411.9 306.5Q412.8 303 416.9 303L419.3 303.5Q421.6 304.5 421.6 306.9L421 309.4Q419.6 312.2 413.9 316.3L422 316.3 422 318ZM429.9 318.3L429.9 318.3Q424 318.3 424 310.6L424 310.6Q424 303 429.9 303L429.9 303Q435.7 303 435.7 310.6L435.7 310.6Q435.7 318.3 429.9 318.3ZM427.5 305.5L433.3 313.8Q434.6 309.3 432.7 306.2 431.8 304.7 429.9 304.7L429.9 304.7Q428.4 304.7 427.5 305.5L427.5 305.5ZM429.9 316.6L429.9 316.6Q431.4 316.6 432.3 315.6L426.5 307.3Q425 311.8 427 315.1 427.9 316.6 429.9 316.6ZM443.7 318L441.8 318 441.8 306.9 437.9 306.9 437.9 305.4Q441.7 305.4 442.4 303.3L443.7 303.3 443.7 318ZM452.6 318.3L449.8 317.7Q447.1 316.6 447.1 313.9L447.1 313.9Q447.1 311 449.8 309.9L448.9 308.6Q447.5 305.4 450.6 303.6 452.6 302.4 454.6 303.6 456.6 304.8 456.6 307L456.2 308.6 455.3 309.9Q458 311 458 313.9L458 313.9Q458 318.3 452.6 318.3ZM452.6 309.4L454.2 308.7Q455.9 307 454.2 305.4 452.6 303.7 450.9 305.4 449.2 307 450.9 308.7 451.6 309.4 452.6 309.4ZM452.6 316.6L452.6 316.6Q456 316.6 456 313.9L456 313.9Q456 311 452.6 311L452.6 311Q449.1 311 449.1 313.9L449.1 313.9Q449.1 316.6 452.6 316.6Z" fill="#625a50"/>
    <path d="M170.5 344L168.7 344 168.7 340.4 161.4 340.4 161.4 338.6 168.6 329.3 170.5 329.3 170.5 338.6 173.2 338.6 173.2 340.4 170.5 340.4 170.5 344ZM168.7 331.8L163.4 338.6 168.7 338.6 168.7 331.8ZM179.9 344.3L177.4 343.8Q175.4 342.9 174.8 340.7L176.6 340.1Q177.2 342.7 179.9 342.7L181.5 342.3Q183.1 341.4 183.1 339.2L182.6 337.2Q181.7 335.7 179.8 335.7L178 336.2 177 337.3 175.2 336.8 176.1 329.3 184.5 329.3 184.5 331.1 177.6 331.1 177.1 335.2Q178.2 334.1 180.3 334.1L182.6 334.7Q185.1 336 185.1 339.2L185.1 339.2Q185.1 344.3 179.9 344.3ZM196.6 344L194.8 344 194.8 334.6 192.9 334.6 192.9 333.1 194.8 333.1Q194.8 329.2 195.9 328.7L198.9 328.5 198.9 330 196.8 330.3 196.6 333.1 198.9 333.1 198.9 334.6 196.6 334.6 196.6 344ZM203.4 344.3L201.5 343.9Q199.6 343.1 199.6 341.1L199.6 341.1Q199.6 338.1 207 337.3L206.4 335.1Q205.8 334.4 204.5 334.4L202.9 334.8 202.1 336.1 200.3 335.6Q201.2 332.9 204.5 332.9L204.5 332.9Q208.8 332.9 208.8 337.3L209.2 344 207.5 344 207.1 342.5Q206 344.3 203.4 344.3ZM203.8 342.8L205.4 342.5Q207.1 341.8 207.1 339.4L207.1 338.7Q201.6 339.3 201.6 341.1L202.2 342.3Q202.8 342.8 203.8 342.8ZM202.2 331L201.4 330.7Q200.5 329.8 201.4 329 202.2 328.2 203.1 329 203.9 329.8 203.1 330.7 202.7 331 202.2 331ZM206.9 331L206 330.7Q205.2 329.8 206 329 206.9 328.2 207.7 329 208.5 329.8 207.7 330.7 207.4 331 206.9 331ZM213.7 344L211.9 344 211.9 333.1 213.2 333.1 213.8 335.1Q215.1 332.9 217.7 332.9L217.7 334.8Q213.7 334.8 213.7 339.3L213.7 344ZM223.8 348.2L222.1 348Q220.1 347.4 219.6 345.7L221.4 345.2Q222 346.6 223.8 346.6L223.8 346.6Q226.7 346.6 226.7 343.4L226.7 341.9Q225.6 343.8 223.3 343.8L221 343.2Q218.7 341.8 218.7 338.4L219.3 335.4Q220.6 332.9 223.3 332.9L225.4 333.4 226.7 334.8 227.3 333.1 228.6 333.1 228.6 343Q228.6 348.2 223.8 348.2ZM223.7 342.3L225.3 341.9Q226.8 341 226.8 338.4L226.4 336.1Q225.6 334.5 223.7 334.5L223.7 334.5Q220.7 334.5 220.7 338.4L220.7 338.4Q220.7 342.3 223.7 342.3ZM236.3 344.3L236.3 344.3Q231 344.3 231 338.6L231.7 335.6Q233.2 332.9 236.3 332.9L238.6 333.4Q241.7 335 241.4 339.1L233 339.1Q233.1 342.6 236.3 342.6L237.9 342.3 238.9 341.6 240.7 342.1Q239.3 344.3 236.3 344.3ZM233 337.6L239.4 337.6Q239.4 334.5 236.3 334.5L234.7 334.8Q233.1 335.5 233 337.6ZM245.4 344L243.5 344 243.5 333.1 244.9 333.1 245.5 335.1Q246.7 332.9 249.4 332.9L249.4 334.8Q245.4 334.8 245.4 339.3L245.4 344Z" fill="#625a50"/>
    <path d="M394.5 344L392.7 344 392.7 340.4 385.4 340.4 385.4 338.6 392.6 329.3 394.5 329.3 394.5 338.6 397.2 338.6 397.2 340.4 394.5 340.4 394.5 344ZM392.7 331.8L387.4 338.6 392.7 338.6 392.7 331.8ZM404.7 344.3L404.7 344.3Q399.4 344.3 399.4 337.2L399.7 334.2Q400.7 329 405.1 329L405.1 329Q408.1 329 409.2 331.4L407.4 331.9Q406.7 330.6 404.9 330.6L404.9 330.6Q401.4 330.6 401.3 336.3L402.7 334.8Q405.1 333.3 407.6 334.8 409.9 336.2 409.9 339.2L409.2 341.7Q407.8 344.3 404.7 344.3ZM404.7 342.7L404.7 342.7Q407.9 342.7 407.9 339.3L407.9 339.3Q407.9 335.8 404.7 335.8L404.7 335.8Q401.5 335.8 401.5 339.3L401.5 339.3Q401.5 342.7 404.7 342.7ZM422.6 344.3L420.8 344Q418.8 343.3 418 341.5L419.8 340.9Q420.3 342.7 422.6 342.7L423.9 342.5Q425.2 342.1 425.2 341.1L425.2 341.1Q425.2 339.7 422.8 339.2L419.8 338.4Q418.3 337.7 418.3 335.9L418.9 334.3Q420.1 332.9 422.5 332.9L424.9 333.4Q426.1 334 426.6 335.1L424.8 335.8Q424.3 334.5 422.3 334.5L420.8 334.8 420.1 335.9Q420.1 337 422.2 337.4L425.3 338.2Q427.1 339 427.1 341L426.4 342.8Q425.1 344.3 422.6 344.3ZM429.5 347.5L428.5 347.5 428.5 345.9Q430.8 345.9 431.2 345.3L431.7 344 427.7 333.1 429.8 333.1 432.4 341.5 435.1 333.1 437.2 333.1 432.5 346.3Q431.7 347.5 429.5 347.5L429.5 347.5ZM442.9 344.3L441 344Q439 343.3 438.3 341.5L440.1 340.9Q440.5 342.7 442.9 342.7L444.1 342.5Q445.4 342.1 445.4 341.1L445.4 341.1Q445.4 339.7 443 339.2L440 338.4Q438.5 337.7 438.5 335.9L439.1 334.3Q440.4 332.9 442.7 332.9L445.2 333.4Q446.3 334 446.8 335.1L445.1 335.8Q444.5 334.5 442.6 334.5L441.1 334.8 440.4 335.9Q440.4 337 442.4 337.4L445.5 338.2Q447.3 339 447.3 341L446.7 342.8Q445.4 344.3 442.9 344.3ZM454.2 344Q450.8 344 450.5 343L450.3 334.6 448.4 334.6 448.4 333.1 450.3 333.1 450.3 330.3 452.1 330.3 452.1 333.1 454.2 333.1 454.2 334.6 452.1 334.6 452.3 342.1 454.2 342.4 454.2 344ZM461.3 344.3L461.3 344.3Q455.9 344.3 455.9 338.6L456.6 335.6Q458.1 332.9 461.2 332.9L463.5 333.4Q466.6 335 466.3 339.1L457.9 339.1Q458 342.6 461.3 342.6L462.8 342.3 463.8 341.6 465.6 342.1Q464.3 344.3 461.3 344.3ZM457.9 337.6L464.4 337.6Q464.4 334.5 461.2 334.5L459.7 334.8Q458.1 335.5 457.9 337.6ZM470.4 344L468.5 344 468.5 333.1 469.9 333.1 470.4 334.7Q471.4 332.9 473.6 332.9L475.7 333.4 476.8 334.8Q478 332.9 480.5 332.9L480.5 332.9Q484 332.9 484 337.1L484 344 482.1 344 482 336.1Q481.6 334.5 479.8 334.5L479.8 334.5Q477.2 334.5 477.2 338.1L477.2 344 475.3 344 475.2 336.1Q474.8 334.5 473 334.5L473 334.5Q470.4 334.5 470.4 338.1L470.4 344Z" fill="#625a50"/>
  </g>

  <!-- Förklaringen: tre rutor 16 × 16 i seriernas stil, namnen bredvid (högst 12, 16 och 6 tecken) -->
  <path d="M80,24.5 Q88,24 96,24.5 Q96.4,32.5 96,40.5 Q88,41 80,40.5 Q79.6,32.5 80,24.5 Z" fill="none" stroke="#2a2521" stroke-width="2" stroke-linejoin="round"/>
  <path d="M260,24.5 Q268,24 276,24.5 Q276.4,32.5 276,40.5 Q268,41 260,40.5 Q259.6,32.5 260,24.5 Z" fill="#c9bca3" stroke="#625a50" stroke-width="2" stroke-linejoin="round"/>
  <path d="M484,24.5 Q492,24 500,24.5 Q500.4,32.5 500,40.5 Q492,41 484,40.5 Q483.6,32.5 484,24.5 Z" fill="none" stroke="#ad3519" stroke-width="2.5" stroke-linejoin="round"/>
  <g font-family="'Atkinson Hyperlegible', system-ui, sans-serif" font-size="22" fill="#625a50">
    <path d="M107.7 40L105.7 40 105.7 25.3 107.7 25.3 107.7 31.6 115.4 31.6 115.4 25.3 117.5 25.3 117.5 40 115.4 40 115.4 33.3 107.7 33.3 107.7 40ZM123.8 40.3L121.9 39.9Q120 39.1 120 37.1L120 37.1Q120 34.1 127.4 33.3L126.8 31.1Q126.2 30.4 124.9 30.4L123.3 30.8 122.5 32.1 120.7 31.6Q121.6 28.9 124.9 28.9L124.9 28.9Q129.3 28.9 129.3 33.3L129.6 40 127.9 40 127.5 38.5Q126.4 40.3 123.8 40.3ZM124.2 38.8L125.8 38.5Q127.5 37.8 127.5 35.4L127.5 34.7Q122.1 35.3 122.1 37.1L122.6 38.3Q123.2 38.8 124.2 38.8ZM125 27.7L123.8 27.4Q122.6 26.6 122.6 25.3L122.9 24.1Q123.6 22.9 125 22.9L126.7 23.6Q128.3 25.3 126.7 27 126 27.7 125 27.7ZM125 26.4L125.8 26.1Q126.6 25.3 125.8 24.5 125 23.7 124.2 24.5 123.4 25.3 124.2 26.1 124.5 26.4 125 26.4ZM135.7 40Q132.9 40 132.5 39L132.3 25.3 134.1 25.3 134.3 38.1 135.7 38.4 135.7 40ZM140.9 40Q138.1 40 137.8 39L137.6 25.3 139.4 25.3 139.6 38.1 140.9 38.4 140.9 40ZM148.2 40.3L146 39.7 144.7 38.4 144.2 40 142.8 40 142.8 25.3 144.7 25.3 144.7 30.8Q145.8 28.9 148.2 28.9L150.5 29.6Q152.9 31.1 152.9 34.6L152.2 37.7Q150.9 40.3 148.2 40.3ZM147.7 38.7L147.7 38.7Q150.8 38.7 150.8 34.6L150.8 34.6Q150.8 30.5 147.7 30.5L147.7 30.5Q144.6 30.5 144.6 34.6L144.6 34.6Q144.6 38.7 147.7 38.7ZM158.3 40.3L156.4 39.9Q154.6 39.1 154.6 37.1L154.6 37.1Q154.6 34.1 161.9 33.3L161.4 31.1Q160.8 30.4 159.5 30.4L157.8 30.8 157 32.1 155.3 31.6Q156.2 28.9 159.4 28.9L159.4 28.9Q163.8 28.9 163.8 33.3L164.2 40 162.5 40 162 38.5Q161 40.3 158.3 40.3ZM158.7 38.8L160.3 38.5Q162.1 37.8 162.1 35.4L162.1 34.7Q156.6 35.3 156.6 37.1L157.2 38.3Q157.7 38.8 158.7 38.8ZM168.7 40L166.8 40 166.8 29.1 168.2 29.1 168.8 31.1Q170 28.9 172.7 28.9L172.7 30.8Q168.7 30.8 168.7 35.3L168.7 40ZM176.2 40L174.3 40 174.3 25.3 176.2 25.3 176.2 30.7Q177.3 28.9 179.7 28.9L179.7 28.9Q183.3 28.9 183.3 33.1L183.3 40 181.4 40 181.3 32.1Q180.9 30.5 179 30.5L179 30.5Q176.2 30.5 176.2 34.1L176.2 40ZM190.7 40.3L190.7 40.3Q185.4 40.3 185.4 34.6L186.1 31.6Q187.6 28.9 190.7 28.9L193 29.4Q196.1 31 195.8 35L187.4 35Q187.5 38.6 190.7 38.6L192.3 38.3 193.3 37.6 195.1 38.1Q193.7 40.3 190.7 40.3ZM187.4 33.6L193.8 33.6Q193.8 30.5 190.7 30.5L189.1 30.8Q187.5 31.5 187.4 33.6ZM202.6 40Q199.3 40 198.9 39L198.7 30.6 196.8 30.6 196.8 29.1 198.7 29.1 198.7 26.3 200.5 26.3 200.5 29.1 202.6 29.1 202.6 30.6 200.5 30.6 200.7 38.1 202.6 38.4 202.6 40ZM209.7 40.3L209.7 40.3Q204.4 40.3 204.4 34.6L205.1 31.6Q206.5 28.9 209.7 28.9L212 29.4Q215.1 31 214.7 35L206.3 35Q206.5 38.6 209.7 38.6L211.3 38.3 212.3 37.6 214 38.1Q212.7 40.3 209.7 40.3ZM206.4 33.6L212.8 33.6Q212.8 30.5 209.7 30.5L208.1 30.8Q206.5 31.5 206.4 33.6ZM218.8 40L216.9 40 216.9 29.1 218.3 29.1 218.8 30.7Q219.9 28.9 222.3 28.9L222.3 28.9Q225.9 28.9 225.9 33.1L225.9 40 224.1 40 223.9 32.1Q223.6 30.5 221.7 30.5L221.7 30.5Q218.8 30.5 218.8 34.1L218.8 40Z" fill="#625a50"/>
    <path d="M287.7 40L285.7 40 285.7 25.3 289.1 25.3 293 37.3 296.9 25.3 300.4 25.3 300.4 40 298.3 40 298.3 27.5 294.1 40 292 40 287.7 27.5 287.7 40ZM305.5 27L304.5 26.6Q303.5 25.6 304.5 24.7 305.5 23.7 306.5 24.7 307.4 25.6 306.5 26.6 306 27 305.5 27ZM306.4 40L304.5 40 304.5 30.6 303 30.6 303 29.1 306.4 29.1 306.4 40ZM313.1 40Q310.3 40 309.9 39L309.7 25.3 311.5 25.3 311.7 38.1 313.1 38.4 313.1 40ZM316.3 27L315.3 26.6Q314.4 25.6 315.3 24.7 316.3 23.7 317.3 24.7 318.2 25.6 317.3 26.6 316.9 27 316.3 27ZM313.3 43.5L312.1 43.5 312.1 41.9Q314.9 42 315.2 41.1L315.4 29.1 317.2 29.1Q317.2 41.3 316.9 42.1 316.3 43.5 313.3 43.5ZM325.1 40.3L323.2 39.9Q319.8 38.7 319.8 34.6L320.3 32Q321.6 28.9 325.1 28.9L327 29.2Q330.3 30.4 330.3 34.6L329.9 37.1Q328.6 40.3 325.1 40.3ZM325.1 38.6L326.6 38.2Q328.3 37.2 328.3 34.6L327.8 32.3Q326.9 30.5 325.1 30.5L323.5 31Q321.8 31.9 321.8 34.6L322.3 36.9Q323.3 38.6 325.1 38.6ZM322.7 27L321.9 26.7Q321.1 25.8 321.9 25 322.8 24.2 323.6 25 324.4 25.8 323.6 26.7 323.2 27 322.7 27ZM327.4 27L326.6 26.7Q325.7 25.8 326.6 25 327.4 24.2 328.2 25 329 25.8 328.2 26.7 327.9 27 327.4 27ZM343.4 40.3L341.5 39.9Q338.1 38.7 338.1 34.6L338.6 32Q339.9 28.9 343.4 28.9L345.3 29.2Q348.6 30.4 348.6 34.6L348.2 37.1Q346.9 40.3 343.4 40.3ZM343.4 38.6L344.9 38.2Q346.6 37.2 346.6 34.6L346.2 32.3Q345.2 30.5 343.4 30.5L341.8 31Q340.1 31.9 340.1 34.6L340.6 36.9Q341.6 38.6 343.4 38.6ZM355.4 40.3L355.4 40.3Q350.3 40.3 350.3 34.6L350.9 31.7Q352.3 28.9 355.6 28.9L355.6 28.9Q358.4 28.9 359.7 31.4L358 32Q357.2 30.5 355.4 30.5L353.9 31Q352.3 31.9 352.3 34.6L352.7 36.8Q353.6 38.6 355.4 38.6L357 38.2 358 37.2 359.7 37.8Q358.3 40.3 355.4 40.3ZM363.8 40L362 40 362 25.3 363.8 25.3 363.8 30.7Q364.9 28.9 367.4 28.9L367.4 28.9Q371 28.9 371 33.1L371 40 369.1 40 369 32.1Q368.6 30.5 366.7 30.5L366.7 30.5Q363.8 30.5 363.8 34.1L363.8 40ZM382 40L380.2 40 380.2 25.3 382 25.3 382 30.7Q383.1 28.9 385.5 28.9L385.5 28.9Q389.1 28.9 389.1 33.1L389.1 40 387.3 40 387.1 32.1Q386.8 30.5 384.9 30.5L384.9 30.5Q382 30.5 382 34.1L382 40ZM395.2 40.3L393.3 39.9Q391.5 39.1 391.5 37.1L391.5 37.1Q391.5 34.1 398.8 33.3L398.3 31.1Q397.7 30.4 396.4 30.4L394.8 30.8 394 32.1 392.2 31.6Q393.1 28.9 396.4 28.9L396.4 28.9Q400.7 28.9 400.7 33.3L401.1 40 399.4 40 399 38.5Q397.9 40.3 395.2 40.3ZM395.6 38.8L397.3 38.5Q399 37.8 399 35.4L399 34.7Q393.5 35.3 393.5 37.1L394.1 38.3Q394.6 38.8 395.6 38.8ZM394.1 27L393.3 26.7Q392.4 25.8 393.3 25 394.1 24.2 394.9 25 395.8 25.8 394.9 26.7 394.6 27 394.1 27ZM398.7 27L397.9 26.7Q397.1 25.8 397.9 25 398.7 24.2 399.6 25 400.4 25.8 399.6 26.7 399.2 27 398.7 27ZM407.1 40Q404.3 40 404 39L403.7 25.3 405.6 25.3 405.8 38.1 407.1 38.4 407.1 40ZM412.7 40.3L410.9 40Q408.9 39.3 408.1 37.5L409.9 36.9Q410.4 38.7 412.7 38.7L414 38.5Q415.3 38.1 415.3 37.1L415.3 37.1Q415.3 35.7 412.9 35.2L409.9 34.4Q408.4 33.7 408.4 31.9L409 30.3Q410.2 28.9 412.6 28.9L415 29.4Q416.2 30 416.7 31.1L414.9 31.8Q414.4 30.5 412.4 30.5L410.9 30.8 410.2 31.9Q410.2 33 412.3 33.4L415.4 34.2Q417.2 35 417.2 37L416.5 38.8Q415.2 40.3 412.7 40.3ZM422.4 40.3L420.5 39.9Q418.7 39.1 418.7 37.1L418.7 37.1Q418.7 34.1 426 33.3L425.5 31.1Q424.9 30.4 423.6 30.4L422 30.8 421.1 32.1 419.4 31.6Q420.3 28.9 423.5 28.9L423.5 28.9Q427.9 28.9 427.9 33.3L428.3 40 426.6 40 426.1 38.5Q425.1 40.3 422.4 40.3ZM422.8 38.8L424.4 38.5Q426.2 37.8 426.2 35.4L426.2 34.7Q420.7 35.3 420.7 37.1L421.3 38.3Q421.8 38.8 422.8 38.8Z" fill="#625a50"/>
    <path d="M515.9 40L509.7 40 509.7 25.3Q517.2 25.3 518.2 25.8 520.1 26.9 520.1 29L519.7 30.7 518.6 32.2Q520.8 33.3 520.8 35.8L520.2 37.8Q519 40 515.9 40L515.9 40ZM511.7 27L511.7 31.6 515.8 31.6Q518.1 31.6 518.1 29.4L517.8 28.3Q517.2 27 515.8 27L511.7 27ZM511.7 33.2L511.7 38.3Q517 38.3 517.5 37.9 518.6 37.1 518.6 35.7L518.4 34.5Q517.7 33.2 516.1 33.2L511.7 33.2ZM525.9 40.3L524 39.9Q522.1 39.1 522.1 37.1L522.1 37.1Q522.1 34.1 529.5 33.3L529 31.1Q528.4 30.4 527.1 30.4L525.4 30.8 524.6 32.1 522.9 31.6Q523.8 28.9 527 28.9L527 28.9Q531.4 28.9 531.4 33.3L531.8 40 530.1 40 529.6 38.5Q528.6 40.3 525.9 40.3ZM526.3 38.8L527.9 38.5Q529.7 37.8 529.7 35.4L529.7 34.7Q524.2 35.3 524.2 37.1L524.8 38.3Q525.3 38.8 526.3 38.8ZM527.1 27.7L525.9 27.4Q524.7 26.6 524.7 25.3L525 24.1Q525.8 22.9 527.1 22.9L528.8 23.6Q530.4 25.3 528.8 27 528.2 27.7 527.1 27.7ZM527.1 26.4L527.9 26.1Q528.7 25.3 527.9 24.5 527.1 23.7 526.3 24.5 525.5 25.3 526.3 26.1 526.6 26.4 527.1 26.4ZM538.2 40.3L535.9 39.6Q533.5 38.1 533.5 34.6L534.1 31.5Q535.5 28.9 538.2 28.9L540.3 29.4 541.7 30.8 541.7 25.3 543.6 25.3Q543.6 38.1 543.9 40L542.2 40 541.7 38.4Q540.7 40.3 538.2 40.3ZM538.6 38.7L538.6 38.7Q541.7 38.7 541.7 34.6L541.7 34.6Q541.7 30.5 538.6 30.5L538.6 30.5Q535.5 30.5 535.5 34.6L535.5 34.6Q535.5 38.7 538.6 38.7ZM549.6 40.3L547.8 39.9Q545.9 39.1 545.9 37.1L545.9 37.1Q545.9 34.1 553.3 33.3L552.7 31.1Q552.1 30.4 550.8 30.4L549.2 30.8 548.4 32.1 546.6 31.6Q547.5 28.9 550.8 28.9L550.8 28.9Q555.1 28.9 555.1 33.3L555.5 40 553.8 40 553.4 38.5Q552.3 40.3 549.6 40.3ZM550 38.8L551.7 38.5Q553.4 37.8 553.4 35.4L553.4 34.7Q547.9 35.3 547.9 37.1L548.5 38.3Q549.1 38.8 550 38.8Z" fill="#625a50"/>
  </g>

  <!-- Anteckningen, det enda i handskrift: från x 408, y 190 och 216, högst 14 tecken per rad (spec avsnitt 6.1) -->
  <g font-family="'Caveat', 'Segoe Print', cursive" font-weight="500" font-size="24" fill="#ad3519">
    <path d="M420.3 182.5L417.3 183.1 413.9 183.2 411.3 190.5 410.4 190.4Q409.8 189.9 410 189.1L412.4 182Q412.7 181.8 413.9 178.6L414.4 176.7Q412.4 177.2 412.4 176.5L412.7 175.8 414.9 175.2 415.7 174.9Q415.9 174 416.7 174.5L417 174.9 422.1 174.5 423.3 175 423.6 175.9Q423.6 176.2 422.3 176.2L418 176.3Q416.4 176.4 415.9 177.8L414.4 181.5 420.1 181.3 420.5 182.1Q420.5 182.4 420.3 182.5ZM420.9 194.8L419.5 194.9Q417.9 194.7 417.7 193.8L418.2 193.1 420.3 193.6Q421.2 193.4 422.2 192L426 184.7Q427.1 181.4 427.7 181.2L428.4 181.1Q429.2 181.9 428.4 183.4L425.3 190.2Q422.7 194.3 420.9 194.8ZM424.1 189.2L422.8 187.9Q422 186.2 422.2 183.1L422.4 180.9Q423.2 179.9 423.7 181L424.1 187 424.8 188.2 424.1 189.2ZM430 189.2L429.7 188.9Q428.8 187.7 431.5 181.8 432.4 179.9 433.2 180.7L433.3 181.5 432.2 184.5Q432.9 183.3 435.7 181.9L436.9 181.7 438 182.6 437.1 183.1Q435 183.2 432.7 185.8L431.7 187.3Q430.9 190.1 430 189.2ZM438.4 189.3L437.7 188.2Q437.4 187.8 439.1 184.6L441.6 181.5Q443.2 180.1 444.2 181L446.3 182.8Q445.3 185.5 446.2 187L447.6 187.8 447.6 188.8Q447.1 189.5 445.8 188.7 444.4 187.9 444.1 186.1L443.4 186.9Q440 190.3 438.4 189.3ZM439.4 187.7L441 187Q443.2 185.1 444.3 183.3 443.1 180.6 440 186.3L439.4 187.7ZM456.4 188.6L454.7 182.9Q454.5 182 455.1 181.6L455.8 181.5Q456.3 181.7 456.7 184.4L457.3 186.6Q457.4 186.9 458.5 185.5L461.3 182.1Q462.7 181.9 461.5 183.5L458.7 187.4 457.1 188.8Q456.7 188.9 456.4 188.6ZM462.8 189.4L462.5 188.2 464.1 182.8 464.5 182.5Q465 182.4 465.5 183.2L465.6 183.7 463.5 189.6Q463.2 189.8 462.8 189.4ZM465.3 179.7L464.9 178.6 465.9 177.1Q466.5 176.6 467.1 177.6L467.3 178.4Q466.9 179.6 466 179.8 465.6 179.9 465.3 179.7ZM475.6 189.1L474.8 188.9Q473.6 188.1 474.2 186L474 184.8Q473.2 184.5 469.6 187.6L468.5 188.8Q467.9 189.2 467.2 187.8L468.4 184.4 469.6 181.3 470.7 181.6Q471.5 182.5 470.3 184.5L469.9 185.5 473.8 182.9Q474.5 182.6 475.3 183.4 475.8 183.9 475.7 186.1 475.7 187.5 476.1 188.2L476.1 188.7Q476 189 475.6 189.1ZM486.5 189.1L485.7 188.9Q484.5 188.1 485 186L484.9 184.8Q484.1 184.5 480.5 187.6L479.4 188.8Q478.7 189.2 478.1 187.8L479.2 184.4 480.5 181.3 481.5 181.6Q482.4 182.5 481.2 184.5L480.8 185.5 484.7 182.9Q485.3 182.6 486.2 183.4 486.7 183.9 486.6 186.1 486.5 187.5 486.9 188.2L487 188.7Q486.8 189 486.5 189.1ZM489.3 189.3L488.6 188.2Q488.2 187.8 489.9 184.6L492.4 181.5Q494 180.1 495 181L497.1 182.8Q496.2 185.5 497 187L498.5 187.8 498.5 188.8Q498 189.5 496.6 188.7 495.3 187.9 494.9 186.1L494.2 186.9Q490.9 190.3 489.3 189.3ZM490.3 187.7L491.9 187Q494.1 185.1 495.2 183.3 494 180.6 490.9 186.3L490.3 187.7ZM500 189.2L499.6 188.9Q498.8 187.7 501.5 181.8 502.3 179.9 503.2 180.7L503.3 181.5 502.2 184.5Q502.8 183.3 505.7 181.9L506.8 181.7 507.9 182.6 507 183.1Q504.9 183.2 502.6 185.8L501.7 187.3Q500.8 190.1 500 189.2ZM512.5 189.3L511.2 189.8Q509.7 189.9 508.8 188.7L508.3 187.6Q507.6 184.6 510.2 182 511.6 180.6 513.2 180.7L514.6 181.4Q515.8 182.5 514.5 184.2 512.9 186.3 510.6 185.3L510 185.4Q509.3 186.6 509.9 187.7 510.5 188.8 512 188L513.4 187.1 514 187.5Q514.8 187.9 512.5 189.3ZM512.4 184.1L513.7 182.8Q513.7 181.9 512.4 182.2L510.6 184 512.4 184.1Z" fill="#ad3519"/>
    <path d="M413.2 215.7L412.6 215.5Q411.3 214.6 412.2 214.5 414.1 214.3 416.9 211.8L418.1 209.8Q418.3 208.3 416.1 209.7L413.3 212.1 412.2 213.7Q411.4 214.1 411.3 213.3L410.9 212.8Q410.8 212.2 413.3 205L415.6 200.2Q416.6 200 416.8 201L413.1 210.3Q415.4 208 416.8 207.8L417.9 207.6Q418.8 207.6 419.4 208.7L419.7 209.9Q419.5 211.2 417.6 213.3L414.3 215.5 413.2 215.7ZM421.2 215.3L420.5 214.2Q420.1 213.8 421.9 210.6L424.4 207.5Q426 206.1 427 207L429.1 208.8Q428.1 211.5 429 213L430.4 213.8 430.4 214.8Q429.9 215.5 428.6 214.7 427.2 213.9 426.9 212.1L426.2 212.9Q422.8 216.3 421.2 215.3ZM422.2 213.7L423.8 213Q426 211.1 427.1 209.3 425.9 206.6 422.8 212.3L422.2 213.7ZM428.3 206.2L427 205.7Q425.9 204.1 427.4 202.5 428.3 201.5 429.7 202.4 430.7 203.1 430 204.7 429.4 206.2 428.3 206.2ZM428.2 205.1L428.9 204.8 429 203.5 428.5 203.2Q427.6 203.2 427.6 204.3L428.2 205.1ZM437.8 216.5L437.2 216.3Q436.5 215.8 436.6 213.8L436.6 213.2Q434 215.4 432.8 215.4L431.4 214.1Q430.9 213 432.1 210.6 434.1 206.7 436.6 208.2L437.4 208.4 440 201.4Q440.6 200.2 441.4 200.8 442.2 201.3 441.7 202.2L438.8 209.9 438.4 215.3Q438.7 216.4 437.8 216.5ZM433.8 213.7L436.2 212Q437.7 210.6 436.4 209.5L435.7 209.4Q433.6 209.5 432.9 213.4L433 213.7Q433.2 213.8 433.8 213.7ZM441.2 215.3L440.5 214.2Q440.2 213.8 441.9 210.6L444.4 207.5Q446 206.1 447 207L449.1 208.8Q448.1 211.5 449 213L450.4 213.8 450.4 214.8Q449.9 215.5 448.6 214.7 447.2 213.9 446.9 212.1L446.2 212.9Q442.8 216.3 441.2 215.3ZM442.2 213.7L443.8 213Q446 211.1 447.1 209.3 445.9 206.6 442.8 212.3L442.2 213.7ZM457.6 215.3L456.9 214.2Q456.5 213.8 458.2 210.6L460.7 207.5Q462.3 206.1 463.3 207L465.4 208.8Q464.5 211.5 465.3 213L466.8 213.8 466.8 214.8Q466.3 215.5 464.9 214.7 463.6 213.9 463.2 212.1L462.5 212.9Q459.2 216.3 457.6 215.3ZM458.6 213.7L460.2 213Q462.4 211.1 463.5 209.3 462.3 206.6 459.2 212.3L458.6 213.7ZM464.6 206.2L463.4 205.7Q462.2 204.1 463.8 202.5 464.7 201.5 466.1 202.4 467 203.1 466.4 204.7 465.8 206.2 464.6 206.2ZM464.6 205.1L465.2 204.8 465.3 203.5 464.9 203.2Q464 203.2 464 204.3L464.6 205.1ZM468.2 215.2L467.9 214.9Q467 213.7 469.7 207.8 470.6 205.9 471.4 206.7L471.5 207.5 470.4 210.5Q471 209.3 473.9 207.9L475.1 207.7 476.2 208.6 475.3 209.1Q473.2 209.2 470.9 211.8L469.9 213.3Q469.1 216.1 468.2 215.2ZM480.8 215.3L479.5 215.8Q478 215.9 477 214.7L476.6 213.6Q475.9 210.6 478.4 208 479.8 206.6 481.5 206.7L482.9 207.4Q484 208.5 482.8 210.2 481.2 212.3 478.9 211.3L478.2 211.4Q477.5 212.6 478.2 213.7 478.8 214.8 480.2 214L481.7 213.1 482.2 213.5Q483 213.9 480.8 215.3ZM480.6 210.1L481.9 208.8Q481.9 207.9 480.7 208.2L478.9 210 480.6 210.1ZM492.7 215.1L491.9 214.9Q490.6 214.1 491.2 212L491.1 210.8Q490.3 210.5 486.6 213.6L485.6 214.8Q484.9 215.2 484.2 213.8L485.4 210.4 486.6 207.3 487.7 207.6Q488.6 208.5 487.3 210.5L487 211.5 490.9 208.9Q491.5 208.6 492.4 209.4 492.9 209.9 492.8 212.1 492.7 213.5 493.1 214.2L493.2 214.7Q493 215 492.7 215.1Z" fill="#ad3519"/>
  </g>
  <g fill="none" stroke="#ad3519" stroke-width="2.5" stroke-linecap="round" stroke-linejoin="round">
    <path d="M500,224 Q499.5,235 497,246"/>
    <path d="M497,246 L491.5,236.5M497,246 L503.5,237.5"/>
  </g>
</svg>
